<?xml version="1.0" encoding="utf-8"?>
<!-- Generator: Adobe Illustrator 15.1.0, SVG Export Plug-In . SVG Version: 6.00 Build 0)  -->
<!DOCTYPE svg PUBLIC "-//W3C//DTD SVG 1.1//EN" "http://www.w3.org/Graphics/SVG/1.1/DTD/svg11.dtd">
<svg version="1.1" xmlns="http://www.w3.org/2000/svg" xmlns:xlink="http://www.w3.org/1999/xlink" x="0px" y="0px" width="612px"
	 height="792px" viewBox="0 0 612 792" enable-background="new 0 0 612 792" xml:space="preserve">
<g id="Layer_1">
	<g>
		<g>
			<path fill="#BCBEC0" d="M-5605.227-1021.804c8.986,0,16.345-7.361,16.345-16.354v-145.4c-5.373-0.57-10.821-0.895-16.345-0.895
				c-5.53,0-10.98,0.325-16.345,0.895v145.4C-5621.571-1029.165-5614.231-1021.804-5605.227-1021.804z"/>
			<g>
				<path fill="#F7941E" d="M-5807.828-1001.188h-34.257v-145.88h-35.42v-29.829h105.098v29.829h-35.42V-1001.188z"/>
				<path fill="#F7941E" d="M-5746.772-1103.724h0.465c6.525-10.021,16.312-15.613,28.43-15.613c4.662,0,9.321,1.164,13.516,2.796
					l-3.962,30.297c-3.962-2.8-8.621-4.198-13.516-4.198c-22.604,0-24.934,20.042-24.934,37.752v51.502h-32.626v-114.419h32.626
					V-1103.724z"/>
				<path fill="#BCBEC0" d="M-5657.293-1115.607v61.988c0,13.047,2.097,28.66,18.643,28.66c16.544,0,18.643-15.613,18.643-28.66
					v-61.988h32.624v67.346c0,33.323-17.244,50.803-51.267,50.803c-34.023,0-51.268-17.48-51.268-50.803v-67.346H-5657.293z"/>
				<path fill="#F7941E" d="M-5529.361-1147.067v38.685h49.637v29.828h-49.637v77.367h-34.256v-175.708h87.154v29.829H-5529.361z"/>
				<path fill="#F7941E" d="M-5344.333-1058.282c0,35.421-24.236,60.824-60.123,60.824c-35.888,0-60.122-25.403-60.122-60.824
					c0-35.655,24.468-61.054,60.122-61.054S-5344.333-1093.937-5344.333-1058.282z M-5431.487-1058.282
					c0,15.379,10.253,31.925,27.031,31.925s27.031-16.546,27.031-31.925c0-15.847-10.253-32.16-27.031-32.16
					S-5431.487-1074.129-5431.487-1058.282z"/>
				<path fill="#F7941E" d="M-5296.331-1103.724h0.466c6.524-10.021,16.312-15.613,28.43-15.613c4.661,0,9.321,1.164,13.517,2.796
					l-3.962,30.297c-3.962-2.8-8.622-4.198-13.517-4.198c-22.604,0-24.934,20.042-24.934,37.752v51.502h-32.625v-114.419h32.625
					V-1103.724z"/>
				<path fill="#F7941E" d="M-5210.811-1073.661h0.466l34.256-41.946h42.412l-48.237,50.334l51.966,64.085h-42.878l-37.519-48.706
					h-0.466v48.706h-32.625V-1198.8h32.625V-1073.661z"/>
			</g>
			<g>
				<path fill="#F7941E" d="M-5447.003-1368.238c0,87.382-70.841,158.221-158.23,158.221c-87.38,0-158.218-70.839-158.218-158.221
					c0.007-87.391,70.835-158.225,158.218-158.225C-5517.844-1526.463-5447.003-1455.629-5447.003-1368.238z"/>
			</g>
			<path fill="#BCBEC0" d="M-5605.232-1210.018c5.81,0,11.528-0.344,17.162-0.943v-53.348h41.544
				c21.599,0.011,39.134-17.526,39.134-39.123v-136.962c0-10.766-8.807-19.573-19.573-19.573c-10.764,0-19.561,8.807-19.561,19.573
				V-1323c0,10.806-8.769,19.569-19.576,19.569c-10.79,0-19.557-8.773-19.557-19.563v-117.006c0-10.77-8.809-19.567-19.573-19.567
				c-10.76,0-19.563,8.797-19.563,19.567v117c0,10.806-8.769,19.569-19.56,19.569c-10.807,0-19.563-8.763-19.563-19.569v-117
				c0-10.77-8.805-19.567-19.576-19.558c-10.761,0-19.565,8.788-19.565,19.558v136.57c0,21.597,17.538,39.123,39.129,39.123h41.538
				v53.348C-5616.751-1210.361-5611.031-1210.018-5605.232-1210.018z"/>
		</g>
		<g>
			<g>
				<path fill="#F7941E" d="M-5815.555-308.363h-33.226v-141.49h-34.355v-28.931h101.937v28.931h-34.355V-308.363z"/>
				<path fill="#F7941E" d="M-5756.336-407.813h0.452c6.329-9.719,15.821-15.144,27.575-15.144c4.521,0,9.04,1.128,13.109,2.711
					l-3.843,29.384c-3.842-2.714-8.362-4.07-13.109-4.07c-21.924,0-24.185,19.438-24.185,36.616v49.952h-31.644v-110.978h31.644
					V-407.813z"/>
				<path fill="#F7941E" d="M-5669.547-419.341v60.124c0,12.657,2.034,27.8,18.082,27.8c16.046,0,18.082-15.143,18.082-27.8v-60.124
					h31.643v65.322c0,32.321-16.726,49.273-49.725,49.273c-33,0-49.726-16.953-49.726-49.273v-65.322H-5669.547z"/>
				<path fill="#F7941E" d="M-5480.147-449.854v37.52h48.143v28.931h-48.143v75.04h-33.226v-170.421h84.533v28.931H-5480.147z"/>
				<path fill="#F7941E" d="M-5300.686-363.739c0,34.355-23.507,58.993-58.314,58.993c-34.807,0-58.314-24.638-58.314-58.993
					c0-34.582,23.732-59.218,58.314-59.218C-5324.417-422.957-5300.686-398.321-5300.686-363.739z M-5385.218-363.739
					c0,14.916,9.945,30.965,26.219,30.965c16.274,0,26.218-16.049,26.218-30.965c0-15.371-9.944-31.192-26.218-31.192
					C-5375.273-394.931-5385.218-379.109-5385.218-363.739z"/>
				<path fill="#F7941E" d="M-5254.126-407.813h0.452c6.328-9.719,15.821-15.144,27.575-15.144c4.52,0,9.04,1.128,13.109,2.711
					l-3.842,29.384c-3.843-2.714-8.363-4.07-13.11-4.07c-21.923,0-24.184,19.438-24.184,36.616v49.952h-31.644v-110.978h31.644
					V-407.813z"/>
				<path fill="#F7941E" d="M-5171.179-378.657h0.452l33.224-40.684h41.137l-46.786,48.82l50.403,62.158h-41.587l-36.39-47.239
					h-0.452v47.239h-31.644v-191.668h31.644V-378.657z"/>
			</g>
			<path fill="#BCBEC0" d="M-5565.253-198.462c8.716,0,15.854-7.14,15.854-15.862v-274.542c-5.211-0.553-10.496-0.868-15.854-0.868
				c-5.364,0-10.65,0.315-15.854,0.868v274.542C-5581.106-205.602-5573.986-198.462-5565.253-198.462z"/>
			<g>
				<g>
					<path fill="#F7941E" d="M-5411.789-669.897c0,84.752-68.71,153.46-153.471,153.46c-84.751,0-153.458-68.708-153.458-153.46
						c0.007-84.764,68.703-153.464,153.458-153.464C-5480.499-823.362-5411.789-754.662-5411.789-669.897z"/>
				</g>
			</g>
			<path fill="#BCBEC0" d="M-5565.258-516.437c5.634,0,11.181-0.333,16.645-0.915v-51.743h40.294
				c20.948,0.012,37.957-16.999,37.957-37.946v-132.842c0-10.442-8.542-18.982-18.985-18.982c-10.44,0-18.972,8.541-18.972,18.982
				v113.861c0,10.481-8.505,18.98-18.987,18.98c-10.466,0-18.968-8.508-18.968-18.975v-113.485c0-10.447-8.544-18.979-18.984-18.979
				c-10.437,0-18.975,8.532-18.975,18.979v113.479c0,10.481-8.505,18.98-18.972,18.98c-10.481,0-18.975-8.499-18.975-18.98v-113.479
				c0-10.447-8.54-18.979-18.988-18.971c-10.436,0-18.976,8.524-18.976,18.971v132.46c0,20.948,17.011,37.946,37.951,37.946h40.289
				v51.743C-5576.43-516.77-5570.883-516.437-5565.258-516.437z"/>
		</g>
	</g>
	<g>
		<g>
			<path fill="#BCBEC0" d="M-5605.227-1021.804c8.986,0,16.345-7.361,16.345-16.354v-145.4c-5.373-0.57-10.821-0.895-16.345-0.895
				c-5.53,0-10.98,0.325-16.345,0.895v145.4C-5621.571-1029.165-5614.231-1021.804-5605.227-1021.804z"/>
			<g>
				<path fill="#F7941E" d="M-5807.828-1001.188h-34.257v-145.88h-35.42v-29.829h105.098v29.829h-35.42V-1001.188z"/>
				<path fill="#F7941E" d="M-5746.772-1103.724h0.465c6.525-10.021,16.312-15.613,28.43-15.613c4.662,0,9.321,1.164,13.516,2.796
					l-3.962,30.297c-3.962-2.8-8.621-4.198-13.516-4.198c-22.604,0-24.934,20.042-24.934,37.752v51.502h-32.626v-114.419h32.626
					V-1103.724z"/>
				<path fill="#BCBEC0" d="M-5657.293-1115.607v61.988c0,13.047,2.097,28.66,18.643,28.66c16.544,0,18.643-15.613,18.643-28.66
					v-61.988h32.624v67.346c0,33.323-17.244,50.803-51.267,50.803c-34.023,0-51.268-17.48-51.268-50.803v-67.346H-5657.293z"/>
				<path fill="#F7941E" d="M-5529.361-1147.067v38.685h49.637v29.828h-49.637v77.367h-34.256v-175.708h87.154v29.829H-5529.361z"/>
				<path fill="#F7941E" d="M-5344.333-1058.282c0,35.421-24.236,60.824-60.123,60.824c-35.888,0-60.122-25.403-60.122-60.824
					c0-35.655,24.468-61.054,60.122-61.054S-5344.333-1093.937-5344.333-1058.282z M-5431.487-1058.282
					c0,15.379,10.253,31.925,27.031,31.925s27.031-16.546,27.031-31.925c0-15.847-10.253-32.16-27.031-32.16
					S-5431.487-1074.129-5431.487-1058.282z"/>
				<path fill="#F7941E" d="M-5296.331-1103.724h0.466c6.524-10.021,16.312-15.613,28.43-15.613c4.661,0,9.321,1.164,13.517,2.796
					l-3.962,30.297c-3.962-2.8-8.622-4.198-13.517-4.198c-22.604,0-24.934,20.042-24.934,37.752v51.502h-32.625v-114.419h32.625
					V-1103.724z"/>
				<path fill="#F7941E" d="M-5210.811-1073.661h0.466l34.256-41.946h42.412l-48.237,50.334l51.966,64.085h-42.878l-37.519-48.706
					h-0.466v48.706h-32.625V-1198.8h32.625V-1073.661z"/>
			</g>
			<g>
				<path fill="#F7941E" d="M-5447.003-1368.238c0,87.382-70.841,158.221-158.23,158.221c-87.38,0-158.218-70.839-158.218-158.221
					c0.007-87.391,70.835-158.225,158.218-158.225C-5517.844-1526.463-5447.003-1455.629-5447.003-1368.238z"/>
			</g>
			<path fill="#BCBEC0" d="M-5605.232-1210.018c5.81,0,11.528-0.344,17.162-0.943v-53.348h41.544
				c21.599,0.011,39.134-17.526,39.134-39.123v-136.962c0-10.766-8.807-19.573-19.573-19.573c-10.764,0-19.561,8.807-19.561,19.573
				V-1323c0,10.806-8.769,19.569-19.576,19.569c-10.79,0-19.557-8.773-19.557-19.563v-117.006c0-10.77-8.809-19.567-19.573-19.567
				c-10.76,0-19.563,8.797-19.563,19.567v117c0,10.806-8.769,19.569-19.56,19.569c-10.807,0-19.563-8.763-19.563-19.569v-117
				c0-10.77-8.805-19.567-19.576-19.558c-10.761,0-19.565,8.788-19.565,19.558v136.57c0,21.597,17.538,39.123,39.129,39.123h41.538
				v53.348C-5616.751-1210.361-5611.031-1210.018-5605.232-1210.018z"/>
		</g>
		<g>
			<g>
				<path fill="#F7941E" d="M-5815.555-308.363h-33.226v-141.49h-34.355v-28.931h101.937v28.931h-34.355V-308.363z"/>
				<path fill="#F7941E" d="M-5756.336-407.813h0.452c6.329-9.719,15.821-15.144,27.575-15.144c4.521,0,9.04,1.128,13.109,2.711
					l-3.843,29.384c-3.842-2.714-8.362-4.07-13.109-4.07c-21.924,0-24.185,19.438-24.185,36.616v49.952h-31.644v-110.978h31.644
					V-407.813z"/>
				<path fill="#F7941E" d="M-5669.547-419.341v60.124c0,12.657,2.034,27.8,18.082,27.8c16.046,0,18.082-15.143,18.082-27.8v-60.124
					h31.643v65.322c0,32.321-16.726,49.273-49.725,49.273c-33,0-49.726-16.953-49.726-49.273v-65.322H-5669.547z"/>
				<path fill="#F7941E" d="M-5480.147-449.854v37.52h48.143v28.931h-48.143v75.04h-33.226v-170.421h84.533v28.931H-5480.147z"/>
				<path fill="#F7941E" d="M-5300.686-363.739c0,34.355-23.507,58.993-58.314,58.993c-34.807,0-58.314-24.638-58.314-58.993
					c0-34.582,23.732-59.218,58.314-59.218C-5324.417-422.957-5300.686-398.321-5300.686-363.739z M-5385.218-363.739
					c0,14.916,9.945,30.965,26.219,30.965c16.274,0,26.218-16.049,26.218-30.965c0-15.371-9.944-31.192-26.218-31.192
					C-5375.273-394.931-5385.218-379.109-5385.218-363.739z"/>
				<path fill="#F7941E" d="M-5254.126-407.813h0.452c6.328-9.719,15.821-15.144,27.575-15.144c4.52,0,9.04,1.128,13.109,2.711
					l-3.842,29.384c-3.843-2.714-8.363-4.07-13.11-4.07c-21.923,0-24.184,19.438-24.184,36.616v49.952h-31.644v-110.978h31.644
					V-407.813z"/>
				<path fill="#F7941E" d="M-5171.179-378.657h0.452l33.224-40.684h41.137l-46.786,48.82l50.403,62.158h-41.587l-36.39-47.239
					h-0.452v47.239h-31.644v-191.668h31.644V-378.657z"/>
			</g>
			<path fill="#BCBEC0" d="M-5565.253-198.462c8.716,0,15.854-7.14,15.854-15.862v-274.542c-5.211-0.553-10.496-0.868-15.854-0.868
				c-5.364,0-10.65,0.315-15.854,0.868v274.542C-5581.106-205.602-5573.986-198.462-5565.253-198.462z"/>
			<g>
				<g>
					<path fill="#F7941E" d="M-5411.789-669.897c0,84.752-68.71,153.46-153.471,153.46c-84.751,0-153.458-68.708-153.458-153.46
						c0.007-84.764,68.703-153.464,153.458-153.464C-5480.499-823.362-5411.789-754.662-5411.789-669.897z"/>
				</g>
			</g>
			<path fill="#BCBEC0" d="M-5565.258-516.437c5.634,0,11.181-0.333,16.645-0.915v-51.743h40.294
				c20.948,0.012,37.957-16.999,37.957-37.946v-132.842c0-10.442-8.542-18.982-18.985-18.982c-10.44,0-18.972,8.541-18.972,18.982
				v113.861c0,10.481-8.505,18.98-18.987,18.98c-10.466,0-18.968-8.508-18.968-18.975v-113.485c0-10.447-8.544-18.979-18.984-18.979
				c-10.437,0-18.975,8.532-18.975,18.979v113.479c0,10.481-8.505,18.98-18.972,18.98c-10.481,0-18.975-8.499-18.975-18.98v-113.479
				c0-10.447-8.54-18.979-18.988-18.971c-10.436,0-18.976,8.524-18.976,18.971v132.46c0,20.948,17.011,37.946,37.951,37.946h40.289
				v51.743C-5576.43-516.77-5570.883-516.437-5565.258-516.437z"/>
		</g>
	</g>
	<g>
		<path fill="#F7941E" d="M-1717.716,306.127h-33.141V164.996h-34.269v-28.857h101.678v28.857h-34.269V306.127z"/>
		<path fill="#F7941E" d="M-1658.649,206.93h0.451c6.312-9.694,15.782-15.105,27.504-15.105c4.509,0,9.019,1.127,13.076,2.705
			l-3.833,29.309c-3.833-2.705-8.341-4.058-13.076-4.058c-21.869,0-24.123,19.389-24.123,36.522v49.824h-31.563V195.432h31.563
			V206.93z"/>
		<path fill="#F7941E" d="M-1572.083,195.432V255.4c0,12.626,2.029,27.73,18.035,27.73c16.008,0,18.036-15.104,18.036-27.73v-59.969
			h31.563v65.154c0,32.24-16.684,49.148-49.6,49.148c-32.915,0-49.598-16.908-49.598-49.148v-65.154H-1572.083z"/>
		<path fill="#F7941E" d="M-1448.315,164.996v37.424h48.02v28.857h-48.02v74.85h-33.142V136.139h84.317v28.857H-1448.315z"/>
		<path fill="#F7941E" d="M-1269.311,250.893c0,34.268-23.447,58.842-58.166,58.842s-58.166-24.574-58.166-58.842
			c0-34.494,23.673-59.068,58.166-59.068C-1292.983,191.824-1269.311,216.398-1269.311,250.893z M-1353.629,250.893
			c0,14.879,9.92,30.886,26.152,30.886s26.152-16.007,26.152-30.886c0-15.331-9.92-31.112-26.152-31.112
			S-1353.629,235.562-1353.629,250.893z"/>
		<path fill="#F7941E" d="M-1222.873,206.93h0.451c6.312-9.694,15.781-15.105,27.505-15.105c4.509,0,9.018,1.127,13.076,2.705
			l-3.833,29.309c-3.833-2.705-8.342-4.058-13.076-4.058c-21.868,0-24.123,19.389-24.123,36.522v49.824h-31.562V195.432h31.562
			V206.93z"/>
		<path fill="#F7941E" d="M-1140.136,236.012h0.451l33.141-40.58h41.032l-46.668,48.697l50.274,61.998h-41.482l-36.297-47.119
			h-0.451v47.119h-31.562V114.946h31.562V236.012z"/>
	</g>
	<g>
		<g>
			<path fill="#BCBEC0" d="M149.347,333.551c34.488,0,62.445,27.958,62.445,62.451c0,34.487-27.958,62.448-62.445,62.448
				c-34.492-0.004-62.449-27.959-62.449-62.448C86.898,361.509,114.854,333.551,149.347,333.551z"/>
		</g>
		<rect x="256.887" y="390.852" fill="#BCBEC0" width="121.414" height="9.169"/>
		<g>
			<path fill="#F7941E" d="M149.347,339.69c31.097,0,56.305,25.21,56.305,56.311c0,31.096-25.208,56.307-56.305,56.307
				c-31.101-0.002-56.309-25.209-56.309-56.307C93.038,364.9,118.246,339.69,149.347,339.69z"/>
		</g>
		<path fill="#BCBEC0" d="M205.652,396.001c0-2.067-0.121-4.104-0.334-6.107h-18.986v-14.785
			c0.005-7.687-6.236-13.927-13.922-13.927h-48.742c-3.831,0-6.965,3.134-6.965,6.967c0,3.83,3.134,6.96,6.965,6.96h41.777
			c3.846,0,6.965,3.12,6.965,6.966c0,3.841-3.122,6.961-6.962,6.961h-41.641c-3.833,0-6.963,3.135-6.963,6.966
			c0,3.829,3.13,6.961,6.963,6.963h41.638c3.846,0,6.965,3.119,6.965,6.959c0,3.846-3.119,6.963-6.965,6.963h-41.638
			c-3.833,0-6.963,3.133-6.96,6.965c0,3.832,3.127,6.965,6.96,6.965h48.603c7.686,0,13.922-6.242,13.922-13.926v-14.783h18.986
			C205.531,400.1,205.652,398.064,205.652,396.001z"/>
		<g>
			<path fill="#F7941E" d="M243.834,441.934h-9.823v-41.912h-5.349v-9.169h5.349v-19.537h9.823v19.537h9.605v9.169h-9.605V441.934z"
				/>
			<path fill="#F7941E" d="M269.264,399.148h0.328c2.401-6.004,7.422-9.824,13.971-9.824c2.837,0,5.675,0.982,8.077,2.51
				l-4.476,8.951c-1.746-1.527-3.711-2.074-6.002-2.074c-10.587,0-11.897,9.824-11.897,18.117v25.105h-9.823v-51.082h9.823V399.148z
				"/>
			<path fill="#F7941E" d="M306.483,390.852v28.269c0,8.188,2.074,15.391,11.789,15.391s11.787-7.203,11.787-15.391v-28.269h9.824
				v29.361c0,13.971-6.549,23.469-21.611,23.469c-15.062,0-21.611-9.498-21.611-23.469v-29.361H306.483z"/>
			<path fill="#F7941E" d="M378.301,357.127c-1.965-0.874-4.475-2.074-6.549-2.074c-6.984,0-6.984,8.84-6.984,13.861v21.938h13.533
				v9.169h-13.533v41.912h-9.824v-41.912h-4.475v-9.169h4.475v-24.885c0-11.132,3.82-20.081,16.48-20.081
				c2.402,0,4.693,0.435,6.877,1.309V357.127z"/>
			<path fill="#F7941E" d="M432.982,416.502c0,15.391-12.006,27.18-27.285,27.18c-15.281,0-27.287-11.789-27.287-27.18
				s12.006-27.177,27.287-27.177C420.977,389.325,432.982,401.111,432.982,416.502z M388.232,416.502
				c0,9.604,7.75,17.793,17.465,17.793c9.713,0,17.463-8.189,17.463-17.793c0-9.715-7.75-17.791-17.463-17.791
				C395.982,398.711,388.232,406.787,388.232,416.502z"/>
			<path fill="#F7941E" d="M452.41,399.148h0.328c2.4-6.004,7.422-9.824,13.971-9.824c2.838,0,5.674,0.982,8.076,2.51l-4.475,8.951
				c-1.746-1.527-3.711-2.074-6.004-2.074c-10.586,0-11.896,9.824-11.896,18.117v25.105h-9.822v-51.082h9.822V399.148z"/>
			<path fill="#F7941E" d="M490.721,410.062l19.209-19.21h12.988l-21.828,21.175l24.012,29.906H512.33l-18.227-23.248l-3.383,3.383
				v19.865h-9.824v-94.739h9.824V410.062z"/>
		</g>
		<rect x="220.289" y="390.852" fill="#BCBEC0" width="39.152" height="9.169"/>
		<rect x="344.949" y="390.852" fill="#BCBEC0" width="36.229" height="9.169"/>
	</g>
	<g>
		<path fill="#BCBEC0" d="M-1970.963-12.584c89.939,0,162.848,72.912,162.848,162.859c0,89.937-72.908,162.852-162.848,162.852
			c-89.949-0.006-162.854-72.91-162.854-162.852C-2133.818,60.328-2060.913-12.584-1970.963-12.584z"/>
	</g>
	<g>
		<path fill="#F7941E" d="M-1970.963,3.428c81.096,0,146.836,65.744,146.836,146.848c0,81.094-65.74,146.839-146.836,146.839
			c-81.105-0.005-146.843-65.74-146.843-146.839C-2117.806,69.172-2052.069,3.428-1970.963,3.428z"/>
	</g>
	<path fill="#BCBEC0" d="M-1824.127,150.275c0-5.39-0.316-10.7-0.872-15.927h-49.511V95.793
		c0.012-20.047-16.264-36.318-36.308-36.318h-127.111c-9.991,0-18.164,8.172-18.164,18.167c0,9.988,8.173,18.151,18.164,18.151
		h108.947c10.03,0,18.164,8.137,18.164,18.167c0,10.014-8.142,18.151-18.156,18.151h-108.591c-9.996,0-18.159,8.177-18.159,18.164
		c0,9.986,8.163,18.156,18.159,18.158h108.583c10.03,0,18.164,8.138,18.164,18.151c0,10.03-8.134,18.156-18.164,18.156h-108.583
		c-9.996,0-18.159,8.172-18.152,18.167c0,9.988,8.156,18.16,18.152,18.16h126.747c20.044,0,36.308-16.279,36.308-36.315v-38.552
		H-1825C-1824.444,160.965-1824.127,155.657-1824.127,150.275z"/>
	<rect x="-1785.338" y="136.315" fill="#BCBEC0" width="102.103" height="28.591"/>
	<rect x="-1481.338" y="136.315" fill="#BCBEC0" width="102.104" height="28.591"/>
	<g>
		<path fill="#BCBEC0" d="M-1970.963,1188.517c89.939,0,162.848,72.912,162.848,162.859c0,89.937-72.908,162.852-162.848,162.852
			c-89.949-0.006-162.854-72.91-162.854-162.852C-2133.818,1261.429-2060.913,1188.517-1970.963,1188.517z"/>
	</g>
	<g>
		<path fill="#F7941E" d="M-1970.963,1204.528c81.096,0,146.836,65.744,146.836,146.848c0,81.094-65.74,146.839-146.836,146.839
			c-81.105-0.005-146.843-65.74-146.843-146.839C-2117.806,1270.272-2052.069,1204.528-1970.963,1204.528z"/>
	</g>
	<path fill="#BCBEC0" d="M-1824.127,1351.376c0-5.39-0.316-10.7-0.872-15.927h-49.511v-38.556
		c0.012-20.047-16.264-36.318-36.308-36.318h-127.111c-9.991,0-18.164,8.172-18.164,18.167c0,9.988,8.173,18.151,18.164,18.151
		h108.947c10.03,0,18.164,8.137,18.164,18.167c0,10.014-8.142,18.151-18.156,18.151h-108.591c-9.996,0-18.159,8.177-18.159,18.164
		c0,9.986,8.163,18.156,18.159,18.158h108.583c10.03,0,18.164,8.138,18.164,18.151c0,10.03-8.134,18.156-18.164,18.156h-108.583
		c-9.996,0-18.159,8.172-18.152,18.167c0,9.988,8.156,18.16,18.152,18.16h126.747c20.044,0,36.308-16.279,36.308-36.315v-38.552
		H-1825C-1824.444,1362.065-1824.127,1356.758-1824.127,1351.376z"/>
	<rect x="-1785.338" y="1337.416" fill="#BCBEC0" width="102.103" height="28.591"/>
	<rect x="-1653.915" y="1337.416" fill="#BCBEC0" width="149.467" height="28.591"/>
	<g>
		<path fill="#BCBEC0" d="M-1970.963,506.468c89.939,0,162.848,72.912,162.848,162.859c0,89.937-72.908,162.852-162.848,162.852
			c-89.949-0.006-162.854-72.91-162.854-162.852C-2133.818,579.38-2060.913,506.468-1970.963,506.468z"/>
	</g>
	<g>
		<path fill="#F7941E" d="M-1970.963,522.479c81.096,0,146.836,65.744,146.836,146.848c0,81.094-65.74,146.839-146.836,146.839
			c-81.105-0.005-146.843-65.74-146.843-146.839C-2117.806,588.224-2052.069,522.479-1970.963,522.479z"/>
	</g>
	<path fill="#BCBEC0" d="M-1824.127,669.327c0-5.39-0.316-10.7-0.872-15.927h-49.511v-38.556
		c0.012-20.047-16.264-36.318-36.308-36.318h-127.111c-9.991,0-18.164,8.172-18.164,18.167c0,9.988,8.173,18.151,18.164,18.151
		h108.947c10.03,0,18.164,8.137,18.164,18.167c0,10.014-8.142,18.151-18.156,18.151h-108.591c-9.996,0-18.159,8.177-18.159,18.164
		c0,9.986,8.163,18.156,18.159,18.158h108.583c10.03,0,18.164,8.138,18.164,18.151c0,10.03-8.134,18.156-18.164,18.156h-108.583
		c-9.996,0-18.159,8.172-18.152,18.167c0,9.988,8.156,18.16,18.152,18.16h126.747c20.044,0,36.308-16.279,36.308-36.315v-38.552
		H-1825C-1824.444,680.017-1824.127,674.709-1824.127,669.327z"/>
	<rect x="-1785.338" y="655.367" fill="#BCBEC0" width="102.103" height="28.591"/>
	<rect x="-1481.338" y="655.367" fill="#BCBEC0" width="83.104" height="28.591"/>
	<rect x="-1714.711" y="655.367" fill="#BCBEC0" width="298.138" height="28.591"/>
	<g>
		<path fill="#BCBEC0" d="M-1717.716,825.179h-33.141V684.048h-34.269V655.19h101.678v28.857h-34.269V825.179z"/>
		<path fill="#F7941E" d="M-1658.649,725.981h0.451c6.312-9.694,15.782-15.105,27.504-15.105c4.509,0,9.019,1.127,13.076,2.705
			l-3.833,29.309c-3.833-2.705-8.341-4.058-13.076-4.058c-21.869,0-24.123,19.389-24.123,36.522v49.824h-31.563V714.483h31.563
			V725.981z"/>
		<path fill="#F7941E" d="M-1572.083,714.483v59.969c0,12.626,2.029,27.73,18.035,27.73c16.008,0,18.036-15.104,18.036-27.73
			v-59.969h31.563v65.154c0,32.24-16.684,49.148-49.6,49.148c-32.915,0-49.598-16.908-49.598-49.148v-65.154H-1572.083z"/>
		<path fill="#BCBEC0" d="M-1448.315,684.048v37.424h48.02v28.857h-48.02v74.85h-33.142V655.19h84.317v28.857H-1448.315z"/>
		<path fill="#F7941E" d="M-1269.311,769.944c0,34.268-23.447,58.842-58.166,58.842s-58.166-24.574-58.166-58.842
			c0-34.494,23.673-59.068,58.166-59.068C-1292.983,710.876-1269.311,735.45-1269.311,769.944z M-1353.629,769.944
			c0,14.879,9.92,30.886,26.152,30.886s26.152-16.007,26.152-30.886c0-15.331-9.92-31.112-26.152-31.112
			S-1353.629,754.613-1353.629,769.944z"/>
		<path fill="#F7941E" d="M-1222.873,725.981h0.451c6.312-9.694,15.781-15.105,27.505-15.105c4.509,0,9.018,1.127,13.076,2.705
			l-3.833,29.309c-3.833-2.705-8.342-4.058-13.076-4.058c-21.868,0-24.123,19.389-24.123,36.522v49.824h-31.562V714.483h31.562
			V725.981z"/>
		<path fill="#F7941E" d="M-1140.136,755.063h0.451l33.141-40.58h41.032l-46.668,48.697l50.274,61.998h-41.482l-36.297-47.119
			h-0.451v47.119h-31.562V633.998h31.562V755.063z"/>
	</g>
	<g>
		<path fill="#F7941E" d="M-1717.716,1507.228h-33.141v-141.131h-34.269v-28.857h101.678v28.857h-34.269V1507.228z"/>
		<path fill="#F7941E" d="M-1658.649,1408.03h0.451c6.312-9.694,15.782-15.105,27.504-15.105c4.509,0,9.019,1.127,13.076,2.705
			l-3.833,29.309c-3.833-2.705-8.341-4.058-13.076-4.058c-21.869,0-24.123,19.389-24.123,36.522v49.824h-31.563v-110.695h31.563
			V1408.03z"/>
		<path fill="#F7941E" d="M-1572.083,1396.532v59.969c0,12.626,2.029,27.73,18.035,27.73c16.008,0,18.036-15.104,18.036-27.73
			v-59.969h31.563v65.154c0,32.24-16.684,49.148-49.6,49.148c-32.915,0-49.598-16.908-49.598-49.148v-65.154H-1572.083z"/>
		<path fill="#F7941E" d="M-1448.315,1366.097v37.424h48.02v28.857h-48.02v74.85h-33.142v-169.988h84.317v28.857H-1448.315z"/>
		<path fill="#F7941E" d="M-1269.311,1451.993c0,34.268-23.447,58.842-58.166,58.842s-58.166-24.574-58.166-58.842
			c0-34.494,23.673-59.068,58.166-59.068C-1292.983,1392.925-1269.311,1417.499-1269.311,1451.993z M-1353.629,1451.993
			c0,14.879,9.92,30.886,26.152,30.886s26.152-16.007,26.152-30.886c0-15.331-9.92-31.112-26.152-31.112
			S-1353.629,1436.662-1353.629,1451.993z"/>
		<path fill="#F7941E" d="M-1222.873,1408.03h0.451c6.312-9.694,15.781-15.105,27.505-15.105c4.509,0,9.018,1.127,13.076,2.705
			l-3.833,29.309c-3.833-2.705-8.342-4.058-13.076-4.058c-21.868,0-24.123,19.389-24.123,36.522v49.824h-31.562v-110.695h31.562
			V1408.03z"/>
		<path fill="#F7941E" d="M-1140.136,1437.112h0.451l33.141-40.58h41.032l-46.668,48.697l50.274,61.998h-41.482l-36.297-47.119
			h-0.451v47.119h-31.562v-191.181h31.562V1437.112z"/>
	</g>
</g>
<g id="Layer_2">
</g>
</svg>
