<?xml version="1.0" encoding="utf-8"?>
<!-- Generator: Adobe Illustrator 15.1.0, SVG Export Plug-In . SVG Version: 6.00 Build 0)  -->
<!DOCTYPE svg PUBLIC "-//W3C//DTD SVG 1.1//EN" "http://www.w3.org/Graphics/SVG/1.1/DTD/svg11.dtd">
<svg version="1.1" xmlns="http://www.w3.org/2000/svg" xmlns:xlink="http://www.w3.org/1999/xlink" x="0px" y="0px" width="16px"
	 height="16px" viewBox="0 0 16 16" enable-background="new 0 0 16 16" xml:space="preserve">
<g id="Layer_1">
	<g>
		<g>
			<path fill="#BCBEC0" d="M-5903.227-1409.804c8.986,0,16.345-7.361,16.345-16.354v-145.4c-5.373-0.57-10.821-0.895-16.345-0.895
				c-5.53,0-10.98,0.325-16.345,0.895v145.4C-5919.571-1417.165-5912.231-1409.804-5903.227-1409.804z"/>
			<g>
				<path fill="#F7941E" d="M-6105.828-1389.188h-34.257v-145.88h-35.42v-29.829h105.098v29.829h-35.42V-1389.188z"/>
				<path fill="#F7941E" d="M-6044.772-1491.724h0.465c6.525-10.021,16.312-15.613,28.43-15.613c4.662,0,9.321,1.164,13.516,2.796
					l-3.962,30.297c-3.962-2.8-8.621-4.198-13.516-4.198c-22.604,0-24.934,20.042-24.934,37.752v51.502h-32.626v-114.419h32.626
					V-1491.724z"/>
				<path fill="#BCBEC0" d="M-5955.293-1503.607v61.988c0,13.047,2.097,28.66,18.643,28.66c16.544,0,18.643-15.613,18.643-28.66
					v-61.988h32.624v67.346c0,33.323-17.244,50.803-51.267,50.803c-34.023,0-51.268-17.48-51.268-50.803v-67.346H-5955.293z"/>
				<path fill="#F7941E" d="M-5827.361-1535.067v38.685h49.637v29.828h-49.637v77.367h-34.256v-175.708h87.154v29.829H-5827.361z"/>
				<path fill="#F7941E" d="M-5642.333-1446.282c0,35.421-24.236,60.824-60.123,60.824c-35.888,0-60.122-25.403-60.122-60.824
					c0-35.655,24.468-61.054,60.122-61.054S-5642.333-1481.937-5642.333-1446.282z M-5729.487-1446.282
					c0,15.379,10.253,31.925,27.031,31.925s27.031-16.546,27.031-31.925c0-15.847-10.253-32.16-27.031-32.16
					S-5729.487-1462.129-5729.487-1446.282z"/>
				<path fill="#F7941E" d="M-5594.331-1491.724h0.466c6.524-10.021,16.312-15.613,28.43-15.613c4.661,0,9.321,1.164,13.517,2.796
					l-3.962,30.297c-3.962-2.8-8.622-4.198-13.517-4.198c-22.604,0-24.934,20.042-24.934,37.752v51.502h-32.625v-114.419h32.625
					V-1491.724z"/>
				<path fill="#F7941E" d="M-5508.811-1461.661h0.466l34.256-41.946h42.412l-48.237,50.334l51.966,64.085h-42.878l-37.519-48.706
					h-0.466v48.706h-32.625V-1586.8h32.625V-1461.661z"/>
			</g>
			<g>
				<path fill="#F7941E" d="M-5745.003-1756.238c0,87.382-70.841,158.221-158.23,158.221c-87.38,0-158.218-70.839-158.218-158.221
					c0.007-87.391,70.835-158.225,158.218-158.225C-5815.844-1914.463-5745.003-1843.629-5745.003-1756.238z"/>
			</g>
			<path fill="#BCBEC0" d="M-5903.232-1598.018c5.81,0,11.528-0.344,17.162-0.943v-53.348h41.544
				c21.599,0.011,39.134-17.526,39.134-39.123v-136.962c0-10.766-8.807-19.573-19.573-19.573c-10.764,0-19.561,8.807-19.561,19.573
				V-1711c0,10.806-8.769,19.569-19.576,19.569c-10.79,0-19.557-8.773-19.557-19.563v-117.006c0-10.77-8.809-19.567-19.573-19.567
				c-10.76,0-19.563,8.797-19.563,19.567v117c0,10.806-8.769,19.569-19.56,19.569c-10.807,0-19.563-8.763-19.563-19.569v-117
				c0-10.77-8.805-19.567-19.576-19.558c-10.761,0-19.565,8.788-19.565,19.558v136.57c0,21.597,17.538,39.123,39.129,39.123h41.538
				v53.348C-5914.751-1598.361-5909.031-1598.018-5903.232-1598.018z"/>
		</g>
		<g>
			<g>
				<path fill="#F7941E" d="M-6113.555-696.363h-33.226v-141.49h-34.355v-28.931h101.937v28.931h-34.355V-696.363z"/>
				<path fill="#F7941E" d="M-6054.336-795.813h0.452c6.329-9.719,15.821-15.144,27.575-15.144c4.521,0,9.04,1.128,13.109,2.711
					l-3.843,29.384c-3.842-2.714-8.362-4.07-13.109-4.07c-21.924,0-24.185,19.438-24.185,36.616v49.952h-31.644v-110.978h31.644
					V-795.813z"/>
				<path fill="#F7941E" d="M-5967.547-807.341v60.124c0,12.657,2.034,27.8,18.082,27.8c16.046,0,18.082-15.143,18.082-27.8v-60.124
					h31.643v65.322c0,32.321-16.726,49.273-49.725,49.273c-33,0-49.726-16.953-49.726-49.273v-65.322H-5967.547z"/>
				<path fill="#F7941E" d="M-5778.147-837.854v37.52h48.143v28.931h-48.143v75.04h-33.226v-170.421h84.533v28.931H-5778.147z"/>
				<path fill="#F7941E" d="M-5598.686-751.739c0,34.355-23.507,58.993-58.314,58.993c-34.807,0-58.314-24.638-58.314-58.993
					c0-34.582,23.732-59.218,58.314-59.218C-5622.417-810.957-5598.686-786.321-5598.686-751.739z M-5683.218-751.739
					c0,14.916,9.945,30.965,26.219,30.965c16.274,0,26.218-16.049,26.218-30.965c0-15.371-9.944-31.192-26.218-31.192
					C-5673.273-782.931-5683.218-767.109-5683.218-751.739z"/>
				<path fill="#F7941E" d="M-5552.126-795.813h0.452c6.328-9.719,15.821-15.144,27.575-15.144c4.52,0,9.04,1.128,13.109,2.711
					l-3.842,29.384c-3.843-2.714-8.363-4.07-13.11-4.07c-21.923,0-24.184,19.438-24.184,36.616v49.952h-31.644v-110.978h31.644
					V-795.813z"/>
				<path fill="#F7941E" d="M-5469.179-766.657h0.452l33.224-40.684h41.137l-46.786,48.82l50.403,62.158h-41.587l-36.39-47.239
					h-0.452v47.239h-31.644v-191.668h31.644V-766.657z"/>
			</g>
			<path fill="#BCBEC0" d="M-5863.253-586.462c8.716,0,15.854-7.14,15.854-15.862v-274.542c-5.211-0.553-10.496-0.868-15.854-0.868
				c-5.364,0-10.65,0.315-15.854,0.868v274.542C-5879.106-593.602-5871.986-586.462-5863.253-586.462z"/>
			<g>
				<g>
					<path fill="#F7941E" d="M-5709.789-1057.897c0,84.752-68.71,153.46-153.471,153.46c-84.751,0-153.458-68.708-153.458-153.46
						c0.007-84.764,68.703-153.464,153.458-153.464C-5778.499-1211.362-5709.789-1142.662-5709.789-1057.897z"/>
				</g>
			</g>
			<path fill="#BCBEC0" d="M-5863.258-904.437c5.634,0,11.181-0.333,16.645-0.915v-51.743h40.294
				c20.948,0.012,37.957-16.999,37.957-37.946v-132.842c0-10.442-8.542-18.982-18.985-18.982c-10.44,0-18.972,8.541-18.972,18.982
				v113.861c0,10.481-8.505,18.98-18.987,18.98c-10.466,0-18.968-8.508-18.968-18.975v-113.485c0-10.447-8.544-18.979-18.984-18.979
				c-10.437,0-18.975,8.532-18.975,18.979v113.479c0,10.481-8.505,18.98-18.972,18.98c-10.481,0-18.975-8.499-18.975-18.98v-113.479
				c0-10.447-8.54-18.979-18.988-18.971c-10.436,0-18.976,8.524-18.976,18.971v132.46c0,20.948,17.011,37.946,37.951,37.946h40.289
				v51.743C-5874.43-904.77-5868.883-904.437-5863.258-904.437z"/>
		</g>
	</g>
	<g>
		<path fill="#E6E7E8" d="M8,1C4.141,1,1,4.141,1,8s3.14,7,7,7c3.859,0,7-3.141,7-7S11.859,1,8,1z"/>
		<g>
			<g>
				<circle fill="#F2634B" cx="8" cy="8" r="6.631"/>
			</g>
		</g>
		<path fill="#E6E7E8" d="M8,14.705c0.243,0,0.482-0.016,0.719-0.039v-2.311h1.741c0.905,0.001,1.641-0.734,1.641-1.639V4.976
			c0-0.451-0.369-0.82-0.821-0.82c-0.451,0-0.819,0.369-0.819,0.82v4.92c0,0.452-0.367,0.82-0.82,0.82
			c-0.452,0-0.819-0.368-0.819-0.82V4.992c0-0.451-0.369-0.82-0.82-0.82s-0.82,0.369-0.82,0.82v4.904c0,0.452-0.367,0.82-0.82,0.82
			s-0.82-0.368-0.82-0.82V4.992c0-0.451-0.369-0.82-0.82-0.819c-0.451,0-0.82,0.368-0.82,0.819v5.725
			c0,0.904,0.735,1.639,1.64,1.639h1.741v2.311C7.517,14.689,7.757,14.705,8,14.705z"/>
	</g>
	<g>
		<g>
			<path fill="#BCBEC0" d="M-5903.227-1409.804c8.986,0,16.345-7.361,16.345-16.354v-145.4c-5.373-0.57-10.821-0.895-16.345-0.895
				c-5.53,0-10.98,0.325-16.345,0.895v145.4C-5919.571-1417.165-5912.231-1409.804-5903.227-1409.804z"/>
			<g>
				<path fill="#F7941E" d="M-6105.828-1389.188h-34.257v-145.88h-35.42v-29.829h105.098v29.829h-35.42V-1389.188z"/>
				<path fill="#F7941E" d="M-6044.772-1491.724h0.465c6.525-10.021,16.312-15.613,28.43-15.613c4.662,0,9.321,1.164,13.516,2.796
					l-3.962,30.297c-3.962-2.8-8.621-4.198-13.516-4.198c-22.604,0-24.934,20.042-24.934,37.752v51.502h-32.626v-114.419h32.626
					V-1491.724z"/>
				<path fill="#BCBEC0" d="M-5955.293-1503.607v61.988c0,13.047,2.097,28.66,18.643,28.66c16.544,0,18.643-15.613,18.643-28.66
					v-61.988h32.624v67.346c0,33.323-17.244,50.803-51.267,50.803c-34.023,0-51.268-17.48-51.268-50.803v-67.346H-5955.293z"/>
				<path fill="#F7941E" d="M-5827.361-1535.067v38.685h49.637v29.828h-49.637v77.367h-34.256v-175.708h87.154v29.829H-5827.361z"/>
				<path fill="#F7941E" d="M-5642.333-1446.282c0,35.421-24.236,60.824-60.123,60.824c-35.888,0-60.122-25.403-60.122-60.824
					c0-35.655,24.468-61.054,60.122-61.054S-5642.333-1481.937-5642.333-1446.282z M-5729.487-1446.282
					c0,15.379,10.253,31.925,27.031,31.925s27.031-16.546,27.031-31.925c0-15.847-10.253-32.16-27.031-32.16
					S-5729.487-1462.129-5729.487-1446.282z"/>
				<path fill="#F7941E" d="M-5594.331-1491.724h0.466c6.524-10.021,16.312-15.613,28.43-15.613c4.661,0,9.321,1.164,13.517,2.796
					l-3.962,30.297c-3.962-2.8-8.622-4.198-13.517-4.198c-22.604,0-24.934,20.042-24.934,37.752v51.502h-32.625v-114.419h32.625
					V-1491.724z"/>
				<path fill="#F7941E" d="M-5508.811-1461.661h0.466l34.256-41.946h42.412l-48.237,50.334l51.966,64.085h-42.878l-37.519-48.706
					h-0.466v48.706h-32.625V-1586.8h32.625V-1461.661z"/>
			</g>
			<g>
				<path fill="#F7941E" d="M-5745.003-1756.238c0,87.382-70.841,158.221-158.23,158.221c-87.38,0-158.218-70.839-158.218-158.221
					c0.007-87.391,70.835-158.225,158.218-158.225C-5815.844-1914.463-5745.003-1843.629-5745.003-1756.238z"/>
			</g>
			<path fill="#BCBEC0" d="M-5903.232-1598.018c5.81,0,11.528-0.344,17.162-0.943v-53.348h41.544
				c21.599,0.011,39.134-17.526,39.134-39.123v-136.962c0-10.766-8.807-19.573-19.573-19.573c-10.764,0-19.561,8.807-19.561,19.573
				V-1711c0,10.806-8.769,19.569-19.576,19.569c-10.79,0-19.557-8.773-19.557-19.563v-117.006c0-10.77-8.809-19.567-19.573-19.567
				c-10.76,0-19.563,8.797-19.563,19.567v117c0,10.806-8.769,19.569-19.56,19.569c-10.807,0-19.563-8.763-19.563-19.569v-117
				c0-10.77-8.805-19.567-19.576-19.558c-10.761,0-19.565,8.788-19.565,19.558v136.57c0,21.597,17.538,39.123,39.129,39.123h41.538
				v53.348C-5914.751-1598.361-5909.031-1598.018-5903.232-1598.018z"/>
		</g>
		<g>
			<g>
				<path fill="#F7941E" d="M-6113.555-696.363h-33.226v-141.49h-34.355v-28.931h101.937v28.931h-34.355V-696.363z"/>
				<path fill="#F7941E" d="M-6054.336-795.813h0.452c6.329-9.719,15.821-15.144,27.575-15.144c4.521,0,9.04,1.128,13.109,2.711
					l-3.843,29.384c-3.842-2.714-8.362-4.07-13.109-4.07c-21.924,0-24.185,19.438-24.185,36.616v49.952h-31.644v-110.978h31.644
					V-795.813z"/>
				<path fill="#F7941E" d="M-5967.547-807.341v60.124c0,12.657,2.034,27.8,18.082,27.8c16.046,0,18.082-15.143,18.082-27.8v-60.124
					h31.643v65.322c0,32.321-16.726,49.273-49.725,49.273c-33,0-49.726-16.953-49.726-49.273v-65.322H-5967.547z"/>
				<path fill="#F7941E" d="M-5778.147-837.854v37.52h48.143v28.931h-48.143v75.04h-33.226v-170.421h84.533v28.931H-5778.147z"/>
				<path fill="#F7941E" d="M-5598.686-751.739c0,34.355-23.507,58.993-58.314,58.993c-34.807,0-58.314-24.638-58.314-58.993
					c0-34.582,23.732-59.218,58.314-59.218C-5622.417-810.957-5598.686-786.321-5598.686-751.739z M-5683.218-751.739
					c0,14.916,9.945,30.965,26.219,30.965c16.274,0,26.218-16.049,26.218-30.965c0-15.371-9.944-31.192-26.218-31.192
					C-5673.273-782.931-5683.218-767.109-5683.218-751.739z"/>
				<path fill="#F7941E" d="M-5552.126-795.813h0.452c6.328-9.719,15.821-15.144,27.575-15.144c4.52,0,9.04,1.128,13.109,2.711
					l-3.842,29.384c-3.843-2.714-8.363-4.07-13.11-4.07c-21.923,0-24.184,19.438-24.184,36.616v49.952h-31.644v-110.978h31.644
					V-795.813z"/>
				<path fill="#F7941E" d="M-5469.179-766.657h0.452l33.224-40.684h41.137l-46.786,48.82l50.403,62.158h-41.587l-36.39-47.239
					h-0.452v47.239h-31.644v-191.668h31.644V-766.657z"/>
			</g>
			<path fill="#BCBEC0" d="M-5863.253-586.462c8.716,0,15.854-7.14,15.854-15.862v-274.542c-5.211-0.553-10.496-0.868-15.854-0.868
				c-5.364,0-10.65,0.315-15.854,0.868v274.542C-5879.106-593.602-5871.986-586.462-5863.253-586.462z"/>
			<g>
				<g>
					<path fill="#F7941E" d="M-5709.789-1057.897c0,84.752-68.71,153.46-153.471,153.46c-84.751,0-153.458-68.708-153.458-153.46
						c0.007-84.764,68.703-153.464,153.458-153.464C-5778.499-1211.362-5709.789-1142.662-5709.789-1057.897z"/>
				</g>
			</g>
			<path fill="#BCBEC0" d="M-5863.258-904.437c5.634,0,11.181-0.333,16.645-0.915v-51.743h40.294
				c20.948,0.012,37.957-16.999,37.957-37.946v-132.842c0-10.442-8.542-18.982-18.985-18.982c-10.44,0-18.972,8.541-18.972,18.982
				v113.861c0,10.481-8.505,18.98-18.987,18.98c-10.466,0-18.968-8.508-18.968-18.975v-113.485c0-10.447-8.544-18.979-18.984-18.979
				c-10.437,0-18.975,8.532-18.975,18.979v113.479c0,10.481-8.505,18.98-18.972,18.98c-10.481,0-18.975-8.499-18.975-18.98v-113.479
				c0-10.447-8.54-18.979-18.988-18.971c-10.436,0-18.976,8.524-18.976,18.971v132.46c0,20.948,17.011,37.946,37.951,37.946h40.289
				v51.743C-5874.43-904.77-5868.883-904.437-5863.258-904.437z"/>
		</g>
	</g>
</g>
<g id="Layer_2">
</g>
</svg>
