<?xml version="1.0" encoding="utf-8"?>
<!-- Generator: Adobe Illustrator 19.1.0, SVG Export Plug-In . SVG Version: 6.00 Build 0)  -->
<svg version="1.1" id="Layer_1" xmlns="http://www.w3.org/2000/svg" xmlns:xlink="http://www.w3.org/1999/xlink" x="0px" y="0px"
	 viewBox="0 0 512 512" style="enable-background:new 0 0 512 512;" xml:space="preserve">
<style type="text/css">
	.st0{fill:url(#SVGID_1_);}
</style>
<linearGradient id="SVGID_1_" gradientUnits="userSpaceOnUse" x1="256" y1="5.9999" x2="256" y2="506">
	<stop  offset="0" style="stop-color:#FFB335"/>
	<stop  offset="1" style="stop-color:#D17B49"/>
</linearGradient>
<path class="st0" d="M456,6L456,6c-27.5,0-50,22.5-50,50v300c0,27.6-22.4,50-50,50h0c-27.6,0-50-22.4-50-50V156
	c0-27.5-22.5-50-50-50h0c-27.5,0-50,22.5-50,50v200c0,27.6-22.4,50-50,50h0c-27.6,0-50-22.4-50-50V256c0-27.5-22.5-50-50-50h0
	c-27.5,0-50,22.5-50,50v150v0c0,55.2,44.8,100,100,100h300c55.2,0,100-44.8,100-100v0V56C506,28.5,483.5,6,456,6z"/>
</svg>
