<?xml version="1.0" encoding="utf-8"?>
<!-- Generator: Adobe Illustrator 15.1.0, SVG Export Plug-In . SVG Version: 6.00 Build 0)  -->
<!DOCTYPE svg PUBLIC "-//W3C//DTD SVG 1.1//EN" "http://www.w3.org/Graphics/SVG/1.1/DTD/svg11.dtd">
<svg version="1.1" xmlns="http://www.w3.org/2000/svg" xmlns:xlink="http://www.w3.org/1999/xlink" x="0px" y="0px" width="92px"
	 height="92px" viewBox="0 0 92 92" enable-background="new 0 0 92 92" xml:space="preserve">
<g id="Layer_1">
	<g>
		<g>
			<path fill="#BCBEC0" d="M-5865.227-1371.804c8.986,0,16.345-7.361,16.345-16.354v-145.4c-5.373-0.57-10.821-0.895-16.345-0.895
				c-5.53,0-10.98,0.325-16.345,0.895v145.4C-5881.571-1379.165-5874.231-1371.804-5865.227-1371.804z"/>
			<g>
				<path fill="#F7941E" d="M-6067.828-1351.188h-34.257v-145.88h-35.42v-29.829h105.098v29.829h-35.42V-1351.188z"/>
				<path fill="#F7941E" d="M-6006.772-1453.724h0.465c6.525-10.021,16.312-15.613,28.43-15.613c4.662,0,9.321,1.164,13.516,2.796
					l-3.962,30.297c-3.962-2.8-8.621-4.198-13.516-4.198c-22.604,0-24.934,20.042-24.934,37.752v51.502h-32.626v-114.419h32.626
					V-1453.724z"/>
				<path fill="#BCBEC0" d="M-5917.293-1465.607v61.988c0,13.047,2.097,28.66,18.643,28.66c16.544,0,18.643-15.613,18.643-28.66
					v-61.988h32.624v67.346c0,33.323-17.244,50.803-51.267,50.803c-34.023,0-51.268-17.48-51.268-50.803v-67.346H-5917.293z"/>
				<path fill="#F7941E" d="M-5789.361-1497.067v38.685h49.637v29.828h-49.637v77.367h-34.256v-175.708h87.154v29.829H-5789.361z"/>
				<path fill="#F7941E" d="M-5604.333-1408.282c0,35.421-24.236,60.824-60.123,60.824c-35.888,0-60.122-25.403-60.122-60.824
					c0-35.655,24.468-61.054,60.122-61.054S-5604.333-1443.937-5604.333-1408.282z M-5691.487-1408.282
					c0,15.379,10.253,31.925,27.031,31.925s27.031-16.546,27.031-31.925c0-15.847-10.253-32.16-27.031-32.16
					S-5691.487-1424.129-5691.487-1408.282z"/>
				<path fill="#F7941E" d="M-5556.331-1453.724h0.466c6.524-10.021,16.312-15.613,28.43-15.613c4.661,0,9.321,1.164,13.517,2.796
					l-3.962,30.297c-3.962-2.8-8.622-4.198-13.517-4.198c-22.604,0-24.934,20.042-24.934,37.752v51.502h-32.625v-114.419h32.625
					V-1453.724z"/>
				<path fill="#F7941E" d="M-5470.811-1423.661h0.466l34.256-41.946h42.412l-48.237,50.334l51.966,64.085h-42.878l-37.519-48.706
					h-0.466v48.706h-32.625V-1548.8h32.625V-1423.661z"/>
			</g>
			<g>
				<path fill="#F7941E" d="M-5707.003-1718.238c0,87.382-70.841,158.221-158.23,158.221c-87.38,0-158.218-70.839-158.218-158.221
					c0.007-87.391,70.835-158.225,158.218-158.225C-5777.844-1876.463-5707.003-1805.629-5707.003-1718.238z"/>
			</g>
			<path fill="#BCBEC0" d="M-5865.232-1560.018c5.81,0,11.528-0.344,17.162-0.943v-53.348h41.544
				c21.599,0.011,39.134-17.526,39.134-39.123v-136.962c0-10.766-8.807-19.573-19.573-19.573c-10.764,0-19.561,8.807-19.561,19.573
				V-1673c0,10.806-8.769,19.569-19.576,19.569c-10.79,0-19.557-8.773-19.557-19.563v-117.006c0-10.77-8.809-19.567-19.573-19.567
				c-10.76,0-19.563,8.797-19.563,19.567v117c0,10.806-8.769,19.569-19.56,19.569c-10.807,0-19.563-8.763-19.563-19.569v-117
				c0-10.77-8.805-19.567-19.576-19.558c-10.761,0-19.565,8.788-19.565,19.558v136.57c0,21.597,17.538,39.123,39.129,39.123h41.538
				v53.348C-5876.751-1560.361-5871.031-1560.018-5865.232-1560.018z"/>
		</g>
		<g>
			<g>
				<path fill="#F7941E" d="M-6075.555-658.363h-33.226v-141.49h-34.355v-28.931h101.937v28.931h-34.355V-658.363z"/>
				<path fill="#F7941E" d="M-6016.336-757.813h0.452c6.329-9.719,15.821-15.144,27.575-15.144c4.521,0,9.04,1.128,13.109,2.711
					l-3.843,29.384c-3.842-2.714-8.362-4.07-13.109-4.07c-21.924,0-24.185,19.438-24.185,36.616v49.952h-31.644v-110.978h31.644
					V-757.813z"/>
				<path fill="#F7941E" d="M-5929.547-769.341v60.124c0,12.657,2.034,27.8,18.082,27.8c16.046,0,18.082-15.143,18.082-27.8v-60.124
					h31.643v65.322c0,32.321-16.726,49.273-49.725,49.273c-33,0-49.726-16.953-49.726-49.273v-65.322H-5929.547z"/>
				<path fill="#F7941E" d="M-5740.147-799.854v37.52h48.143v28.931h-48.143v75.04h-33.226v-170.421h84.533v28.931H-5740.147z"/>
				<path fill="#F7941E" d="M-5560.686-713.739c0,34.355-23.507,58.993-58.314,58.993c-34.807,0-58.314-24.638-58.314-58.993
					c0-34.582,23.732-59.218,58.314-59.218C-5584.417-772.957-5560.686-748.321-5560.686-713.739z M-5645.218-713.739
					c0,14.916,9.945,30.965,26.219,30.965c16.274,0,26.218-16.049,26.218-30.965c0-15.371-9.944-31.192-26.218-31.192
					C-5635.273-744.931-5645.218-729.109-5645.218-713.739z"/>
				<path fill="#F7941E" d="M-5514.126-757.813h0.452c6.328-9.719,15.821-15.144,27.575-15.144c4.52,0,9.04,1.128,13.109,2.711
					l-3.842,29.384c-3.843-2.714-8.363-4.07-13.11-4.07c-21.923,0-24.184,19.438-24.184,36.616v49.952h-31.644v-110.978h31.644
					V-757.813z"/>
				<path fill="#F7941E" d="M-5431.179-728.657h0.452l33.224-40.684h41.137l-46.786,48.82l50.403,62.158h-41.587l-36.39-47.239
					h-0.452v47.239h-31.644v-191.668h31.644V-728.657z"/>
			</g>
			<path fill="#BCBEC0" d="M-5825.253-548.462c8.716,0,15.854-7.14,15.854-15.862v-274.542c-5.211-0.553-10.496-0.868-15.854-0.868
				c-5.364,0-10.65,0.315-15.854,0.868v274.542C-5841.106-555.602-5833.986-548.462-5825.253-548.462z"/>
			<g>
				<g>
					<path fill="#F7941E" d="M-5671.789-1019.897c0,84.752-68.71,153.46-153.471,153.46c-84.751,0-153.458-68.708-153.458-153.46
						c0.007-84.764,68.703-153.464,153.458-153.464C-5740.499-1173.362-5671.789-1104.662-5671.789-1019.897z"/>
				</g>
			</g>
			<path fill="#BCBEC0" d="M-5825.258-866.437c5.634,0,11.181-0.333,16.645-0.915v-51.743h40.294
				c20.948,0.012,37.957-16.999,37.957-37.946v-132.842c0-10.442-8.542-18.982-18.985-18.982c-10.44,0-18.972,8.541-18.972,18.982
				v113.861c0,10.481-8.505,18.98-18.987,18.98c-10.466,0-18.968-8.508-18.968-18.975v-113.485c0-10.447-8.544-18.979-18.984-18.979
				c-10.437,0-18.975,8.532-18.975,18.979v113.479c0,10.481-8.505,18.98-18.972,18.98c-10.481,0-18.975-8.499-18.975-18.98v-113.479
				c0-10.447-8.54-18.979-18.988-18.971c-10.436,0-18.976,8.524-18.976,18.971v132.46c0,20.948,17.011,37.946,37.951,37.946h40.289
				v51.743C-5836.43-866.77-5830.883-866.437-5825.258-866.437z"/>
		</g>
	</g>
	<g>
		<path fill="#E6E7E8" d="M45.998,1C21.188,1,1.002,21.188,1,46.001C1,70.814,21.187,91,45.998,91C70.812,91,91,70.814,91,46.001
			C91,21.188,70.812,1,45.998,1z"/>
		<g>
			<g>
				<path fill="#F2634B" d="M88.629,46.001c0,23.542-19.086,42.627-42.631,42.627c-23.541,0-42.626-19.085-42.626-42.627
					C3.373,22.455,22.455,3.372,45.998,3.372C69.543,3.372,88.629,22.455,88.629,46.001z"/>
			</g>
		</g>
		<path fill="#E6E7E8" d="M45.998,89.103c1.565,0,3.105-0.093,4.624-0.254V74h11.192c5.819,0.004,10.544-4.721,10.544-10.539v-36.9
			c0-2.901-2.372-5.273-5.274-5.273c-2.9,0-5.27,2.372-5.27,5.273v31.626c0,2.912-2.361,5.273-5.273,5.273
			c-2.908,0-5.27-2.363-5.27-5.271V26.666c0-2.902-2.373-5.272-5.273-5.272c-2.898,0-5.27,2.37-5.27,5.272v31.521
			c0,2.912-2.362,5.273-5.27,5.273c-2.912,0-5.271-2.361-5.271-5.273V26.666c0-2.902-2.372-5.272-5.274-5.27
			c-2.898,0-5.271,2.367-5.271,5.27v36.795C19.642,69.279,24.367,74,30.184,74h11.191v14.849
			C42.896,89.01,44.436,89.103,45.998,89.103z"/>
	</g>
	<g>
		<g>
			<path fill="#BCBEC0" d="M-5865.227-1371.804c8.986,0,16.345-7.361,16.345-16.354v-145.4c-5.373-0.57-10.821-0.895-16.345-0.895
				c-5.53,0-10.98,0.325-16.345,0.895v145.4C-5881.571-1379.165-5874.231-1371.804-5865.227-1371.804z"/>
			<g>
				<path fill="#F7941E" d="M-6067.828-1351.188h-34.257v-145.88h-35.42v-29.829h105.098v29.829h-35.42V-1351.188z"/>
				<path fill="#F7941E" d="M-6006.772-1453.724h0.465c6.525-10.021,16.312-15.613,28.43-15.613c4.662,0,9.321,1.164,13.516,2.796
					l-3.962,30.297c-3.962-2.8-8.621-4.198-13.516-4.198c-22.604,0-24.934,20.042-24.934,37.752v51.502h-32.626v-114.419h32.626
					V-1453.724z"/>
				<path fill="#BCBEC0" d="M-5917.293-1465.607v61.988c0,13.047,2.097,28.66,18.643,28.66c16.544,0,18.643-15.613,18.643-28.66
					v-61.988h32.624v67.346c0,33.323-17.244,50.803-51.267,50.803c-34.023,0-51.268-17.48-51.268-50.803v-67.346H-5917.293z"/>
				<path fill="#F7941E" d="M-5789.361-1497.067v38.685h49.637v29.828h-49.637v77.367h-34.256v-175.708h87.154v29.829H-5789.361z"/>
				<path fill="#F7941E" d="M-5604.333-1408.282c0,35.421-24.236,60.824-60.123,60.824c-35.888,0-60.122-25.403-60.122-60.824
					c0-35.655,24.468-61.054,60.122-61.054S-5604.333-1443.937-5604.333-1408.282z M-5691.487-1408.282
					c0,15.379,10.253,31.925,27.031,31.925s27.031-16.546,27.031-31.925c0-15.847-10.253-32.16-27.031-32.16
					S-5691.487-1424.129-5691.487-1408.282z"/>
				<path fill="#F7941E" d="M-5556.331-1453.724h0.466c6.524-10.021,16.312-15.613,28.43-15.613c4.661,0,9.321,1.164,13.517,2.796
					l-3.962,30.297c-3.962-2.8-8.622-4.198-13.517-4.198c-22.604,0-24.934,20.042-24.934,37.752v51.502h-32.625v-114.419h32.625
					V-1453.724z"/>
				<path fill="#F7941E" d="M-5470.811-1423.661h0.466l34.256-41.946h42.412l-48.237,50.334l51.966,64.085h-42.878l-37.519-48.706
					h-0.466v48.706h-32.625V-1548.8h32.625V-1423.661z"/>
			</g>
			<g>
				<path fill="#F7941E" d="M-5707.003-1718.238c0,87.382-70.841,158.221-158.23,158.221c-87.38,0-158.218-70.839-158.218-158.221
					c0.007-87.391,70.835-158.225,158.218-158.225C-5777.844-1876.463-5707.003-1805.629-5707.003-1718.238z"/>
			</g>
			<path fill="#BCBEC0" d="M-5865.232-1560.018c5.81,0,11.528-0.344,17.162-0.943v-53.348h41.544
				c21.599,0.011,39.134-17.526,39.134-39.123v-136.962c0-10.766-8.807-19.573-19.573-19.573c-10.764,0-19.561,8.807-19.561,19.573
				V-1673c0,10.806-8.769,19.569-19.576,19.569c-10.79,0-19.557-8.773-19.557-19.563v-117.006c0-10.77-8.809-19.567-19.573-19.567
				c-10.76,0-19.563,8.797-19.563,19.567v117c0,10.806-8.769,19.569-19.56,19.569c-10.807,0-19.563-8.763-19.563-19.569v-117
				c0-10.77-8.805-19.567-19.576-19.558c-10.761,0-19.565,8.788-19.565,19.558v136.57c0,21.597,17.538,39.123,39.129,39.123h41.538
				v53.348C-5876.751-1560.361-5871.031-1560.018-5865.232-1560.018z"/>
		</g>
		<g>
			<g>
				<path fill="#F7941E" d="M-6075.555-658.363h-33.226v-141.49h-34.355v-28.931h101.937v28.931h-34.355V-658.363z"/>
				<path fill="#F7941E" d="M-6016.336-757.813h0.452c6.329-9.719,15.821-15.144,27.575-15.144c4.521,0,9.04,1.128,13.109,2.711
					l-3.843,29.384c-3.842-2.714-8.362-4.07-13.109-4.07c-21.924,0-24.185,19.438-24.185,36.616v49.952h-31.644v-110.978h31.644
					V-757.813z"/>
				<path fill="#F7941E" d="M-5929.547-769.341v60.124c0,12.657,2.034,27.8,18.082,27.8c16.046,0,18.082-15.143,18.082-27.8v-60.124
					h31.643v65.322c0,32.321-16.726,49.273-49.725,49.273c-33,0-49.726-16.953-49.726-49.273v-65.322H-5929.547z"/>
				<path fill="#F7941E" d="M-5740.147-799.854v37.52h48.143v28.931h-48.143v75.04h-33.226v-170.421h84.533v28.931H-5740.147z"/>
				<path fill="#F7941E" d="M-5560.686-713.739c0,34.355-23.507,58.993-58.314,58.993c-34.807,0-58.314-24.638-58.314-58.993
					c0-34.582,23.732-59.218,58.314-59.218C-5584.417-772.957-5560.686-748.321-5560.686-713.739z M-5645.218-713.739
					c0,14.916,9.945,30.965,26.219,30.965c16.274,0,26.218-16.049,26.218-30.965c0-15.371-9.944-31.192-26.218-31.192
					C-5635.273-744.931-5645.218-729.109-5645.218-713.739z"/>
				<path fill="#F7941E" d="M-5514.126-757.813h0.452c6.328-9.719,15.821-15.144,27.575-15.144c4.52,0,9.04,1.128,13.109,2.711
					l-3.842,29.384c-3.843-2.714-8.363-4.07-13.11-4.07c-21.923,0-24.184,19.438-24.184,36.616v49.952h-31.644v-110.978h31.644
					V-757.813z"/>
				<path fill="#F7941E" d="M-5431.179-728.657h0.452l33.224-40.684h41.137l-46.786,48.82l50.403,62.158h-41.587l-36.39-47.239
					h-0.452v47.239h-31.644v-191.668h31.644V-728.657z"/>
			</g>
			<path fill="#BCBEC0" d="M-5825.253-548.462c8.716,0,15.854-7.14,15.854-15.862v-274.542c-5.211-0.553-10.496-0.868-15.854-0.868
				c-5.364,0-10.65,0.315-15.854,0.868v274.542C-5841.106-555.602-5833.986-548.462-5825.253-548.462z"/>
			<g>
				<g>
					<path fill="#F7941E" d="M-5671.789-1019.897c0,84.752-68.71,153.46-153.471,153.46c-84.751,0-153.458-68.708-153.458-153.46
						c0.007-84.764,68.703-153.464,153.458-153.464C-5740.499-1173.362-5671.789-1104.662-5671.789-1019.897z"/>
				</g>
			</g>
			<path fill="#BCBEC0" d="M-5825.258-866.437c5.634,0,11.181-0.333,16.645-0.915v-51.743h40.294
				c20.948,0.012,37.957-16.999,37.957-37.946v-132.842c0-10.442-8.542-18.982-18.985-18.982c-10.44,0-18.972,8.541-18.972,18.982
				v113.861c0,10.481-8.505,18.98-18.987,18.98c-10.466,0-18.968-8.508-18.968-18.975v-113.485c0-10.447-8.544-18.979-18.984-18.979
				c-10.437,0-18.975,8.532-18.975,18.979v113.479c0,10.481-8.505,18.98-18.972,18.98c-10.481,0-18.975-8.499-18.975-18.98v-113.479
				c0-10.447-8.54-18.979-18.988-18.971c-10.436,0-18.976,8.524-18.976,18.971v132.46c0,20.948,17.011,37.946,37.951,37.946h40.289
				v51.743C-5836.43-866.77-5830.883-866.437-5825.258-866.437z"/>
		</g>
	</g>
</g>
<g id="Layer_2">
</g>
</svg>
