<?xml version="1.0" encoding="utf-8"?>
<!-- Generator: Adobe Illustrator 15.1.0, SVG Export Plug-In . SVG Version: 6.00 Build 0)  -->
<!DOCTYPE svg PUBLIC "-//W3C//DTD SVG 1.1//EN" "http://www.w3.org/Graphics/SVG/1.1/DTD/svg11.dtd">
<svg version="1.1" xmlns="http://www.w3.org/2000/svg" xmlns:xlink="http://www.w3.org/1999/xlink" x="0px" y="0px" width="184px"
	 height="184px" viewBox="0 0 184 184" enable-background="new 0 0 184 184" xml:space="preserve">
<g id="Layer_1">
	<g>
		<g>
			<path fill="#BCBEC0" d="M-5819.227-1325.804c8.986,0,16.345-7.361,16.345-16.354v-145.4c-5.373-0.57-10.821-0.895-16.345-0.895
				c-5.53,0-10.98,0.325-16.345,0.895v145.4C-5835.571-1333.165-5828.231-1325.804-5819.227-1325.804z"/>
			<g>
				<path fill="#F7941E" d="M-6021.828-1305.188h-34.257v-145.88h-35.42v-29.829h105.098v29.829h-35.42V-1305.188z"/>
				<path fill="#F7941E" d="M-5960.772-1407.724h0.465c6.525-10.021,16.312-15.613,28.43-15.613c4.662,0,9.321,1.164,13.516,2.796
					l-3.962,30.297c-3.962-2.8-8.621-4.198-13.516-4.198c-22.604,0-24.934,20.042-24.934,37.752v51.502h-32.626v-114.419h32.626
					V-1407.724z"/>
				<path fill="#BCBEC0" d="M-5871.293-1419.607v61.988c0,13.047,2.097,28.66,18.643,28.66c16.544,0,18.643-15.613,18.643-28.66
					v-61.988h32.624v67.346c0,33.323-17.244,50.803-51.267,50.803c-34.023,0-51.268-17.48-51.268-50.803v-67.346H-5871.293z"/>
				<path fill="#F7941E" d="M-5743.361-1451.067v38.685h49.637v29.828h-49.637v77.367h-34.256v-175.708h87.154v29.829H-5743.361z"/>
				<path fill="#F7941E" d="M-5558.333-1362.282c0,35.421-24.236,60.824-60.123,60.824c-35.888,0-60.122-25.403-60.122-60.824
					c0-35.655,24.468-61.054,60.122-61.054S-5558.333-1397.937-5558.333-1362.282z M-5645.487-1362.282
					c0,15.379,10.253,31.925,27.031,31.925s27.031-16.546,27.031-31.925c0-15.847-10.253-32.16-27.031-32.16
					S-5645.487-1378.129-5645.487-1362.282z"/>
				<path fill="#F7941E" d="M-5510.331-1407.724h0.466c6.524-10.021,16.312-15.613,28.43-15.613c4.661,0,9.321,1.164,13.517,2.796
					l-3.962,30.297c-3.962-2.8-8.622-4.198-13.517-4.198c-22.604,0-24.934,20.042-24.934,37.752v51.502h-32.625v-114.419h32.625
					V-1407.724z"/>
				<path fill="#F7941E" d="M-5424.811-1377.661h0.466l34.256-41.946h42.412l-48.237,50.334l51.966,64.085h-42.878l-37.519-48.706
					h-0.466v48.706h-32.625V-1502.8h32.625V-1377.661z"/>
			</g>
			<g>
				<path fill="#F7941E" d="M-5661.003-1672.238c0,87.382-70.841,158.221-158.23,158.221c-87.38,0-158.218-70.839-158.218-158.221
					c0.007-87.391,70.835-158.225,158.218-158.225C-5731.844-1830.463-5661.003-1759.629-5661.003-1672.238z"/>
			</g>
			<path fill="#BCBEC0" d="M-5819.232-1514.018c5.81,0,11.528-0.344,17.162-0.943v-53.348h41.544
				c21.599,0.011,39.134-17.526,39.134-39.123v-136.962c0-10.766-8.807-19.573-19.573-19.573c-10.764,0-19.561,8.807-19.561,19.573
				V-1627c0,10.806-8.769,19.569-19.576,19.569c-10.79,0-19.557-8.773-19.557-19.563v-117.006c0-10.77-8.809-19.567-19.573-19.567
				c-10.76,0-19.563,8.797-19.563,19.567v117c0,10.806-8.769,19.569-19.56,19.569c-10.807,0-19.563-8.763-19.563-19.569v-117
				c0-10.77-8.805-19.567-19.576-19.558c-10.761,0-19.565,8.788-19.565,19.558v136.57c0,21.597,17.538,39.123,39.129,39.123h41.538
				v53.348C-5830.751-1514.361-5825.031-1514.018-5819.232-1514.018z"/>
		</g>
		<g>
			<g>
				<path fill="#F7941E" d="M-6029.555-612.363h-33.226v-141.49h-34.355v-28.931h101.937v28.931h-34.355V-612.363z"/>
				<path fill="#F7941E" d="M-5970.336-711.813h0.452c6.329-9.719,15.821-15.144,27.575-15.144c4.521,0,9.04,1.128,13.109,2.711
					l-3.843,29.384c-3.842-2.714-8.362-4.07-13.109-4.07c-21.924,0-24.185,19.438-24.185,36.616v49.952h-31.644v-110.978h31.644
					V-711.813z"/>
				<path fill="#F7941E" d="M-5883.547-723.341v60.124c0,12.657,2.034,27.8,18.082,27.8c16.046,0,18.082-15.143,18.082-27.8v-60.124
					h31.643v65.322c0,32.321-16.726,49.273-49.725,49.273c-33,0-49.726-16.953-49.726-49.273v-65.322H-5883.547z"/>
				<path fill="#F7941E" d="M-5694.147-753.854v37.52h48.143v28.931h-48.143v75.04h-33.226v-170.421h84.533v28.931H-5694.147z"/>
				<path fill="#F7941E" d="M-5514.686-667.739c0,34.355-23.507,58.993-58.314,58.993c-34.807,0-58.314-24.638-58.314-58.993
					c0-34.582,23.732-59.218,58.314-59.218C-5538.417-726.957-5514.686-702.321-5514.686-667.739z M-5599.218-667.739
					c0,14.916,9.945,30.965,26.219,30.965c16.274,0,26.218-16.049,26.218-30.965c0-15.371-9.944-31.192-26.218-31.192
					C-5589.273-698.931-5599.218-683.109-5599.218-667.739z"/>
				<path fill="#F7941E" d="M-5468.126-711.813h0.452c6.328-9.719,15.821-15.144,27.575-15.144c4.52,0,9.04,1.128,13.109,2.711
					l-3.842,29.384c-3.843-2.714-8.363-4.07-13.11-4.07c-21.923,0-24.184,19.438-24.184,36.616v49.952h-31.644v-110.978h31.644
					V-711.813z"/>
				<path fill="#F7941E" d="M-5385.179-682.657h0.452l33.224-40.684h41.137l-46.786,48.82l50.403,62.158h-41.587l-36.39-47.239
					h-0.452v47.239h-31.644v-191.668h31.644V-682.657z"/>
			</g>
			<path fill="#BCBEC0" d="M-5779.253-502.462c8.716,0,15.854-7.14,15.854-15.862v-274.542c-5.211-0.553-10.496-0.868-15.854-0.868
				c-5.364,0-10.65,0.315-15.854,0.868v274.542C-5795.106-509.602-5787.986-502.462-5779.253-502.462z"/>
			<g>
				<g>
					<path fill="#F7941E" d="M-5625.789-973.897c0,84.752-68.71,153.46-153.471,153.46c-84.751,0-153.458-68.708-153.458-153.46
						c0.007-84.764,68.703-153.464,153.458-153.464C-5694.499-1127.362-5625.789-1058.662-5625.789-973.897z"/>
				</g>
			</g>
			<path fill="#BCBEC0" d="M-5779.258-820.437c5.634,0,11.181-0.333,16.645-0.915v-51.743h40.294
				c20.948,0.012,37.957-16.999,37.957-37.946v-132.842c0-10.442-8.542-18.982-18.985-18.982c-10.44,0-18.972,8.541-18.972,18.982
				v113.861c0,10.481-8.505,18.98-18.987,18.98c-10.466,0-18.968-8.508-18.968-18.975v-113.485c0-10.447-8.544-18.979-18.984-18.979
				c-10.437,0-18.975,8.532-18.975,18.979v113.479c0,10.481-8.505,18.98-18.972,18.98c-10.481,0-18.975-8.499-18.975-18.98v-113.479
				c0-10.447-8.54-18.979-18.988-18.971c-10.436,0-18.976,8.524-18.976,18.971v132.46c0,20.948,17.011,37.946,37.951,37.946h40.289
				v51.743C-5790.43-820.77-5784.883-820.437-5779.258-820.437z"/>
		</g>
	</g>
	<g>
		<path fill="#E6E7E8" d="M91.996,2C42.375,2,2.002,42.375,1.999,92.002C1.999,141.629,42.372,182,91.996,182
			c49.63,0,90.005-40.371,90.005-89.998S141.626,2,91.996,2z"/>
		<g>
			<g>
				<path fill="#F2634B" d="M177.258,92.002c0,47.085-38.171,85.255-85.262,85.255c-47.083,0-85.254-38.17-85.254-85.255
					C6.746,44.909,44.91,6.743,91.996,6.743C139.087,6.743,177.258,44.909,177.258,92.002z"/>
			</g>
		</g>
		<path fill="#E6E7E8" d="M91.996,178.206c3.131,0,6.212-0.186,9.248-0.508v-29.697h22.385c11.639,0.009,21.089-9.442,21.089-21.08
			V53.122c0-5.802-4.745-10.546-10.55-10.546c-5.8,0-10.539,4.744-10.539,10.546v63.253c0,5.824-4.724,10.546-10.546,10.546
			c-5.816,0-10.54-4.725-10.54-10.54V53.332c0-5.805-4.746-10.544-10.547-10.544c-5.796,0-10.54,4.74-10.54,10.544v63.043
			c0,5.824-4.725,10.546-10.54,10.546c-5.824,0-10.542-4.722-10.542-10.546V53.332c0-5.805-4.744-10.544-10.549-10.54
			c-5.797,0-10.542,4.735-10.542,10.54v73.589c0,11.638,9.45,21.08,21.083,21.08H82.75v29.697
			C85.791,178.021,88.872,178.206,91.996,178.206z"/>
	</g>
	<g>
		<g>
			<path fill="#BCBEC0" d="M-5819.227-1325.804c8.986,0,16.345-7.361,16.345-16.354v-145.4c-5.373-0.57-10.821-0.895-16.345-0.895
				c-5.53,0-10.98,0.325-16.345,0.895v145.4C-5835.571-1333.165-5828.231-1325.804-5819.227-1325.804z"/>
			<g>
				<path fill="#F7941E" d="M-6021.828-1305.188h-34.257v-145.88h-35.42v-29.829h105.098v29.829h-35.42V-1305.188z"/>
				<path fill="#F7941E" d="M-5960.772-1407.724h0.465c6.525-10.021,16.312-15.613,28.43-15.613c4.662,0,9.321,1.164,13.516,2.796
					l-3.962,30.297c-3.962-2.8-8.621-4.198-13.516-4.198c-22.604,0-24.934,20.042-24.934,37.752v51.502h-32.626v-114.419h32.626
					V-1407.724z"/>
				<path fill="#BCBEC0" d="M-5871.293-1419.607v61.988c0,13.047,2.097,28.66,18.643,28.66c16.544,0,18.643-15.613,18.643-28.66
					v-61.988h32.624v67.346c0,33.323-17.244,50.803-51.267,50.803c-34.023,0-51.268-17.48-51.268-50.803v-67.346H-5871.293z"/>
				<path fill="#F7941E" d="M-5743.361-1451.067v38.685h49.637v29.828h-49.637v77.367h-34.256v-175.708h87.154v29.829H-5743.361z"/>
				<path fill="#F7941E" d="M-5558.333-1362.282c0,35.421-24.236,60.824-60.123,60.824c-35.888,0-60.122-25.403-60.122-60.824
					c0-35.655,24.468-61.054,60.122-61.054S-5558.333-1397.937-5558.333-1362.282z M-5645.487-1362.282
					c0,15.379,10.253,31.925,27.031,31.925s27.031-16.546,27.031-31.925c0-15.847-10.253-32.16-27.031-32.16
					S-5645.487-1378.129-5645.487-1362.282z"/>
				<path fill="#F7941E" d="M-5510.331-1407.724h0.466c6.524-10.021,16.312-15.613,28.43-15.613c4.661,0,9.321,1.164,13.517,2.796
					l-3.962,30.297c-3.962-2.8-8.622-4.198-13.517-4.198c-22.604,0-24.934,20.042-24.934,37.752v51.502h-32.625v-114.419h32.625
					V-1407.724z"/>
				<path fill="#F7941E" d="M-5424.811-1377.661h0.466l34.256-41.946h42.412l-48.237,50.334l51.966,64.085h-42.878l-37.519-48.706
					h-0.466v48.706h-32.625V-1502.8h32.625V-1377.661z"/>
			</g>
			<g>
				<path fill="#F7941E" d="M-5661.003-1672.238c0,87.382-70.841,158.221-158.23,158.221c-87.38,0-158.218-70.839-158.218-158.221
					c0.007-87.391,70.835-158.225,158.218-158.225C-5731.844-1830.463-5661.003-1759.629-5661.003-1672.238z"/>
			</g>
			<path fill="#BCBEC0" d="M-5819.232-1514.018c5.81,0,11.528-0.344,17.162-0.943v-53.348h41.544
				c21.599,0.011,39.134-17.526,39.134-39.123v-136.962c0-10.766-8.807-19.573-19.573-19.573c-10.764,0-19.561,8.807-19.561,19.573
				V-1627c0,10.806-8.769,19.569-19.576,19.569c-10.79,0-19.557-8.773-19.557-19.563v-117.006c0-10.77-8.809-19.567-19.573-19.567
				c-10.76,0-19.563,8.797-19.563,19.567v117c0,10.806-8.769,19.569-19.56,19.569c-10.807,0-19.563-8.763-19.563-19.569v-117
				c0-10.77-8.805-19.567-19.576-19.558c-10.761,0-19.565,8.788-19.565,19.558v136.57c0,21.597,17.538,39.123,39.129,39.123h41.538
				v53.348C-5830.751-1514.361-5825.031-1514.018-5819.232-1514.018z"/>
		</g>
		<g>
			<g>
				<path fill="#F7941E" d="M-6029.555-612.363h-33.226v-141.49h-34.355v-28.931h101.937v28.931h-34.355V-612.363z"/>
				<path fill="#F7941E" d="M-5970.336-711.813h0.452c6.329-9.719,15.821-15.144,27.575-15.144c4.521,0,9.04,1.128,13.109,2.711
					l-3.843,29.384c-3.842-2.714-8.362-4.07-13.109-4.07c-21.924,0-24.185,19.438-24.185,36.616v49.952h-31.644v-110.978h31.644
					V-711.813z"/>
				<path fill="#F7941E" d="M-5883.547-723.341v60.124c0,12.657,2.034,27.8,18.082,27.8c16.046,0,18.082-15.143,18.082-27.8v-60.124
					h31.643v65.322c0,32.321-16.726,49.273-49.725,49.273c-33,0-49.726-16.953-49.726-49.273v-65.322H-5883.547z"/>
				<path fill="#F7941E" d="M-5694.147-753.854v37.52h48.143v28.931h-48.143v75.04h-33.226v-170.421h84.533v28.931H-5694.147z"/>
				<path fill="#F7941E" d="M-5514.686-667.739c0,34.355-23.507,58.993-58.314,58.993c-34.807,0-58.314-24.638-58.314-58.993
					c0-34.582,23.732-59.218,58.314-59.218C-5538.417-726.957-5514.686-702.321-5514.686-667.739z M-5599.218-667.739
					c0,14.916,9.945,30.965,26.219,30.965c16.274,0,26.218-16.049,26.218-30.965c0-15.371-9.944-31.192-26.218-31.192
					C-5589.273-698.931-5599.218-683.109-5599.218-667.739z"/>
				<path fill="#F7941E" d="M-5468.126-711.813h0.452c6.328-9.719,15.821-15.144,27.575-15.144c4.52,0,9.04,1.128,13.109,2.711
					l-3.842,29.384c-3.843-2.714-8.363-4.07-13.11-4.07c-21.923,0-24.184,19.438-24.184,36.616v49.952h-31.644v-110.978h31.644
					V-711.813z"/>
				<path fill="#F7941E" d="M-5385.179-682.657h0.452l33.224-40.684h41.137l-46.786,48.82l50.403,62.158h-41.587l-36.39-47.239
					h-0.452v47.239h-31.644v-191.668h31.644V-682.657z"/>
			</g>
			<path fill="#BCBEC0" d="M-5779.253-502.462c8.716,0,15.854-7.14,15.854-15.862v-274.542c-5.211-0.553-10.496-0.868-15.854-0.868
				c-5.364,0-10.65,0.315-15.854,0.868v274.542C-5795.106-509.602-5787.986-502.462-5779.253-502.462z"/>
			<g>
				<g>
					<path fill="#F7941E" d="M-5625.789-973.897c0,84.752-68.71,153.46-153.471,153.46c-84.751,0-153.458-68.708-153.458-153.46
						c0.007-84.764,68.703-153.464,153.458-153.464C-5694.499-1127.362-5625.789-1058.662-5625.789-973.897z"/>
				</g>
			</g>
			<path fill="#BCBEC0" d="M-5779.258-820.437c5.634,0,11.181-0.333,16.645-0.915v-51.743h40.294
				c20.948,0.012,37.957-16.999,37.957-37.946v-132.842c0-10.442-8.542-18.982-18.985-18.982c-10.44,0-18.972,8.541-18.972,18.982
				v113.861c0,10.481-8.505,18.98-18.987,18.98c-10.466,0-18.968-8.508-18.968-18.975v-113.485c0-10.447-8.544-18.979-18.984-18.979
				c-10.437,0-18.975,8.532-18.975,18.979v113.479c0,10.481-8.505,18.98-18.972,18.98c-10.481,0-18.975-8.499-18.975-18.98v-113.479
				c0-10.447-8.54-18.979-18.988-18.971c-10.436,0-18.976,8.524-18.976,18.971v132.46c0,20.948,17.011,37.946,37.951,37.946h40.289
				v51.743C-5790.43-820.77-5784.883-820.437-5779.258-820.437z"/>
		</g>
	</g>
</g>
<g id="Layer_2">
</g>
</svg>
