<?xml version="1.0" encoding="utf-8"?>
<!-- Generator: Adobe Illustrator 15.1.0, SVG Export Plug-In . SVG Version: 6.00 Build 0)  -->
<!DOCTYPE svg PUBLIC "-//W3C//DTD SVG 1.1//EN" "http://www.w3.org/Graphics/SVG/1.1/DTD/svg11.dtd">
<svg version="1.1" id="Layer_1" xmlns="http://www.w3.org/2000/svg" xmlns:xlink="http://www.w3.org/1999/xlink" x="0px" y="0px"
	 width="612px" height="792px" viewBox="0 0 612 792" enable-background="new 0 0 612 792" xml:space="preserve">
<g>
	<path fill="#BCBEC0" d="M246.025,537.904c5.31,0,9.658-4.35,9.658-9.662v-85.914c-3.176-0.338-6.395-0.529-9.658-0.529
		c-3.269,0-6.488,0.191-9.657,0.529v85.914C236.368,533.555,240.705,537.904,246.025,537.904z"/>
	<g>
		<path fill="#F7941E" d="M126.312,550.086h-20.242v-86.197H85.14v-17.625h62.101v17.625h-20.929V550.086z"/>
		<path fill="#F7941E" d="M162.389,489.5h0.273c3.856-5.92,9.64-9.225,16.8-9.225c2.754,0,5.508,0.688,7.986,1.652l-2.341,17.9
			c-2.341-1.652-5.095-2.479-7.986-2.479c-13.355,0-14.732,11.842-14.732,22.305v30.432h-19.279v-67.609h19.279V489.5z"/>
		<path fill="#BCBEC0" d="M215.26,482.477v36.629c0,7.711,1.24,16.936,11.016,16.936s11.016-9.225,11.016-16.936v-36.629h19.277
			v39.795c0,19.691-10.189,30.02-30.293,30.02s-30.292-10.328-30.292-30.02v-39.795H215.26z"/>
		<path fill="#F7941E" d="M290.854,463.889v22.859h29.327v17.623h-29.327v45.715h-20.242V446.264h51.499v17.625H290.854z"/>
		<path fill="#F7941E" d="M400.185,516.352c0,20.93-14.322,35.939-35.527,35.939s-35.523-15.01-35.523-35.939
			c0-21.068,14.455-36.076,35.523-36.076C385.727,480.275,400.185,495.283,400.185,516.352z M348.687,516.352
			c0,9.086,6.057,18.863,15.971,18.863c9.915,0,15.974-9.777,15.974-18.863c0-9.365-6.059-19.002-15.974-19.002
			C354.743,497.35,348.687,506.986,348.687,516.352z"/>
		<path fill="#F7941E" d="M428.548,489.5h0.274c3.856-5.92,9.64-9.225,16.8-9.225c2.753,0,5.507,0.688,7.987,1.652l-2.343,17.9
			c-2.342-1.652-5.094-2.479-7.987-2.479c-13.354,0-14.731,11.842-14.731,22.305v30.432H409.27v-67.609h19.278V489.5z"/>
		<path fill="#F7941E" d="M479.08,507.264h0.276l20.24-24.787h25.06l-28.501,29.744l30.705,37.865h-25.336l-22.168-28.779h-0.276
			v28.779h-19.278V433.32h19.278V507.264z"/>
	</g>
	<g>
		<path fill="#F7941E" d="M339.518,333.202c0,51.632-41.858,93.489-93.496,93.489c-51.631,0-93.488-41.857-93.488-93.489
			c0.004-51.638,41.854-93.493,93.488-93.493C297.659,239.709,339.518,281.564,339.518,333.202z"/>
	</g>
	<path fill="#BCBEC0" d="M246.021,426.691c3.433,0,6.812-0.201,10.142-0.557v-31.522h24.548
		c12.763,0.007,23.123-10.355,23.123-23.117v-80.929c0-6.361-5.203-11.565-11.564-11.565s-11.559,5.204-11.559,11.565v69.366
		c0,6.385-5.182,11.562-11.567,11.562c-6.376,0-11.557-5.184-11.557-11.56v-69.137c0-6.364-5.204-11.562-11.565-11.562
		c-6.357,0-11.56,5.198-11.56,11.562v69.134c0,6.385-5.181,11.562-11.558,11.562c-6.385,0-11.559-5.178-11.559-11.562v-69.134
		c0-6.364-5.203-11.562-11.567-11.557c-6.358,0-11.562,5.193-11.562,11.557v80.697c0,12.762,10.363,23.117,23.121,23.117h24.544
		v31.522C239.216,426.49,242.596,426.691,246.021,426.691z"/>
</g>
<g>
	<g>
		<path fill="#BCBEC0" d="M-5605.227-1021.804c8.986,0,16.345-7.361,16.345-16.354v-145.4c-5.373-0.57-10.821-0.895-16.345-0.895
			c-5.53,0-10.98,0.325-16.345,0.895v145.4C-5621.571-1029.165-5614.231-1021.804-5605.227-1021.804z"/>
		<g>
			<path fill="#F7941E" d="M-5807.828-1001.188h-34.257v-145.88h-35.42v-29.829h105.098v29.829h-35.42V-1001.188z"/>
			<path fill="#F7941E" d="M-5746.772-1103.724h0.465c6.525-10.021,16.312-15.613,28.43-15.613c4.662,0,9.321,1.164,13.516,2.796
				l-3.962,30.297c-3.962-2.8-8.621-4.198-13.516-4.198c-22.604,0-24.934,20.042-24.934,37.752v51.502h-32.626v-114.419h32.626
				V-1103.724z"/>
			<path fill="#BCBEC0" d="M-5657.293-1115.607v61.988c0,13.047,2.097,28.66,18.643,28.66c16.544,0,18.643-15.613,18.643-28.66
				v-61.988h32.624v67.346c0,33.323-17.244,50.803-51.267,50.803c-34.023,0-51.268-17.48-51.268-50.803v-67.346H-5657.293z"/>
			<path fill="#F7941E" d="M-5529.361-1147.067v38.685h49.637v29.828h-49.637v77.367h-34.256v-175.708h87.154v29.829H-5529.361z"/>
			<path fill="#F7941E" d="M-5344.333-1058.282c0,35.421-24.236,60.824-60.123,60.824c-35.888,0-60.122-25.403-60.122-60.824
				c0-35.655,24.468-61.054,60.122-61.054S-5344.333-1093.937-5344.333-1058.282z M-5431.487-1058.282
				c0,15.379,10.253,31.925,27.031,31.925s27.031-16.546,27.031-31.925c0-15.847-10.253-32.16-27.031-32.16
				S-5431.487-1074.129-5431.487-1058.282z"/>
			<path fill="#F7941E" d="M-5296.331-1103.724h0.466c6.524-10.021,16.312-15.613,28.43-15.613c4.661,0,9.321,1.164,13.517,2.796
				l-3.962,30.297c-3.962-2.8-8.622-4.198-13.517-4.198c-22.604,0-24.934,20.042-24.934,37.752v51.502h-32.625v-114.419h32.625
				V-1103.724z"/>
			<path fill="#F7941E" d="M-5210.811-1073.661h0.466l34.256-41.946h42.412l-48.237,50.334l51.966,64.085h-42.878l-37.519-48.706
				h-0.466v48.706h-32.625V-1198.8h32.625V-1073.661z"/>
		</g>
		<g>
			<path fill="#F7941E" d="M-5447.003-1368.238c0,87.382-70.841,158.221-158.23,158.221c-87.38,0-158.218-70.839-158.218-158.221
				c0.007-87.391,70.835-158.225,158.218-158.225C-5517.844-1526.463-5447.003-1455.629-5447.003-1368.238z"/>
		</g>
		<path fill="#BCBEC0" d="M-5605.232-1210.018c5.81,0,11.528-0.344,17.162-0.943v-53.348h41.544
			c21.599,0.011,39.134-17.526,39.134-39.123v-136.962c0-10.766-8.807-19.573-19.573-19.573c-10.764,0-19.561,8.807-19.561,19.573
			V-1323c0,10.806-8.769,19.569-19.576,19.569c-10.79,0-19.557-8.773-19.557-19.563v-117.006c0-10.77-8.809-19.567-19.573-19.567
			c-10.76,0-19.563,8.797-19.563,19.567v117c0,10.806-8.769,19.569-19.56,19.569c-10.807,0-19.563-8.763-19.563-19.569v-117
			c0-10.77-8.805-19.567-19.576-19.558c-10.761,0-19.565,8.788-19.565,19.558v136.57c0,21.597,17.538,39.123,39.129,39.123h41.538
			v53.348C-5616.751-1210.361-5611.031-1210.018-5605.232-1210.018z"/>
	</g>
	<g>
		<g>
			<path fill="#F7941E" d="M-5815.555-308.363h-33.226v-141.49h-34.355v-28.931h101.937v28.931h-34.355V-308.363z"/>
			<path fill="#F7941E" d="M-5756.336-407.813h0.452c6.329-9.719,15.821-15.144,27.575-15.144c4.521,0,9.04,1.128,13.109,2.711
				l-3.843,29.384c-3.842-2.714-8.362-4.07-13.109-4.07c-21.924,0-24.185,19.438-24.185,36.616v49.952h-31.644v-110.978h31.644
				V-407.813z"/>
			<path fill="#F7941E" d="M-5669.547-419.341v60.124c0,12.657,2.034,27.8,18.082,27.8c16.046,0,18.082-15.143,18.082-27.8v-60.124
				h31.643v65.322c0,32.321-16.726,49.273-49.725,49.273c-33,0-49.726-16.953-49.726-49.273v-65.322H-5669.547z"/>
			<path fill="#F7941E" d="M-5480.147-449.854v37.52h48.143v28.931h-48.143v75.04h-33.226v-170.421h84.533v28.931H-5480.147z"/>
			<path fill="#F7941E" d="M-5300.686-363.739c0,34.355-23.507,58.993-58.314,58.993c-34.807,0-58.314-24.638-58.314-58.993
				c0-34.582,23.732-59.218,58.314-59.218C-5324.417-422.957-5300.686-398.321-5300.686-363.739z M-5385.218-363.739
				c0,14.916,9.945,30.965,26.219,30.965c16.274,0,26.218-16.049,26.218-30.965c0-15.371-9.944-31.192-26.218-31.192
				C-5375.273-394.931-5385.218-379.109-5385.218-363.739z"/>
			<path fill="#F7941E" d="M-5254.126-407.813h0.452c6.328-9.719,15.821-15.144,27.575-15.144c4.52,0,9.04,1.128,13.109,2.711
				l-3.842,29.384c-3.843-2.714-8.363-4.07-13.11-4.07c-21.923,0-24.184,19.438-24.184,36.616v49.952h-31.644v-110.978h31.644
				V-407.813z"/>
			<path fill="#F7941E" d="M-5171.179-378.657h0.452l33.224-40.684h41.137l-46.786,48.82l50.403,62.158h-41.587l-36.39-47.239
				h-0.452v47.239h-31.644v-191.668h31.644V-378.657z"/>
		</g>
		<path fill="#BCBEC0" d="M-5565.253-198.462c8.716,0,15.854-7.14,15.854-15.862v-274.542c-5.211-0.553-10.496-0.868-15.854-0.868
			c-5.364,0-10.65,0.315-15.854,0.868v274.542C-5581.106-205.602-5573.986-198.462-5565.253-198.462z"/>
		<g>
			<g>
				<path fill="#F7941E" d="M-5411.789-669.897c0,84.752-68.71,153.46-153.471,153.46c-84.751,0-153.458-68.708-153.458-153.46
					c0.007-84.764,68.703-153.464,153.458-153.464C-5480.499-823.362-5411.789-754.662-5411.789-669.897z"/>
			</g>
		</g>
		<path fill="#BCBEC0" d="M-5565.258-516.437c5.634,0,11.181-0.333,16.645-0.915v-51.743h40.294
			c20.948,0.012,37.957-16.999,37.957-37.946v-132.842c0-10.442-8.542-18.982-18.985-18.982c-10.44,0-18.972,8.541-18.972,18.982
			v113.861c0,10.481-8.505,18.98-18.987,18.98c-10.466,0-18.968-8.508-18.968-18.975v-113.485c0-10.447-8.544-18.979-18.984-18.979
			c-10.437,0-18.975,8.532-18.975,18.979v113.479c0,10.481-8.505,18.98-18.972,18.98c-10.481,0-18.975-8.499-18.975-18.98v-113.479
			c0-10.447-8.54-18.979-18.988-18.971c-10.436,0-18.976,8.524-18.976,18.971v132.46c0,20.948,17.011,37.946,37.951,37.946h40.289
			v51.743C-5576.43-516.77-5570.883-516.437-5565.258-516.437z"/>
	</g>
</g>
</svg>
