<?xml version="1.0" encoding="utf-8"?>
<!-- Generator: Adobe Illustrator 15.1.0, SVG Export Plug-In . SVG Version: 6.00 Build 0)  -->
<!DOCTYPE svg PUBLIC "-//W3C//DTD SVG 1.1//EN" "http://www.w3.org/Graphics/SVG/1.1/DTD/svg11.dtd">
<svg version="1.1" xmlns="http://www.w3.org/2000/svg" xmlns:xlink="http://www.w3.org/1999/xlink" x="0px" y="0px" width="612px"
	 height="792px" viewBox="0 0 612 792" enable-background="new 0 0 612 792" xml:space="preserve">
<g id="Layer_1">
	<g>
		<g>
			<path fill="#BCBEC0" d="M-5605.227-1021.804c8.986,0,16.345-7.361,16.345-16.354v-145.4c-5.373-0.57-10.821-0.895-16.345-0.895
				c-5.53,0-10.98,0.325-16.345,0.895v145.4C-5621.571-1029.165-5614.231-1021.804-5605.227-1021.804z"/>
			<g>
				<path fill="#F7941E" d="M-5807.828-1001.188h-34.257v-145.88h-35.42v-29.829h105.098v29.829h-35.42V-1001.188z"/>
				<path fill="#F7941E" d="M-5746.772-1103.724h0.465c6.525-10.021,16.312-15.613,28.43-15.613c4.662,0,9.321,1.164,13.516,2.796
					l-3.962,30.297c-3.962-2.8-8.621-4.198-13.516-4.198c-22.604,0-24.934,20.042-24.934,37.752v51.502h-32.626v-114.419h32.626
					V-1103.724z"/>
				<path fill="#BCBEC0" d="M-5657.293-1115.607v61.988c0,13.047,2.097,28.66,18.643,28.66c16.544,0,18.643-15.613,18.643-28.66
					v-61.988h32.624v67.346c0,33.323-17.244,50.803-51.267,50.803c-34.023,0-51.268-17.48-51.268-50.803v-67.346H-5657.293z"/>
				<path fill="#F7941E" d="M-5529.361-1147.067v38.685h49.637v29.828h-49.637v77.367h-34.256v-175.708h87.154v29.829H-5529.361z"/>
				<path fill="#F7941E" d="M-5344.333-1058.282c0,35.421-24.236,60.824-60.123,60.824c-35.888,0-60.122-25.403-60.122-60.824
					c0-35.655,24.468-61.054,60.122-61.054S-5344.333-1093.937-5344.333-1058.282z M-5431.487-1058.282
					c0,15.379,10.253,31.925,27.031,31.925s27.031-16.546,27.031-31.925c0-15.847-10.253-32.16-27.031-32.16
					S-5431.487-1074.129-5431.487-1058.282z"/>
				<path fill="#F7941E" d="M-5296.331-1103.724h0.466c6.524-10.021,16.312-15.613,28.43-15.613c4.661,0,9.321,1.164,13.517,2.796
					l-3.962,30.297c-3.962-2.8-8.622-4.198-13.517-4.198c-22.604,0-24.934,20.042-24.934,37.752v51.502h-32.625v-114.419h32.625
					V-1103.724z"/>
				<path fill="#F7941E" d="M-5210.811-1073.661h0.466l34.256-41.946h42.412l-48.237,50.334l51.966,64.085h-42.878l-37.519-48.706
					h-0.466v48.706h-32.625V-1198.8h32.625V-1073.661z"/>
			</g>
			<g>
				<path fill="#F7941E" d="M-5447.003-1368.238c0,87.382-70.841,158.221-158.23,158.221c-87.38,0-158.218-70.839-158.218-158.221
					c0.007-87.391,70.835-158.225,158.218-158.225C-5517.844-1526.463-5447.003-1455.629-5447.003-1368.238z"/>
			</g>
			<path fill="#BCBEC0" d="M-5605.232-1210.018c5.81,0,11.528-0.344,17.162-0.943v-53.348h41.544
				c21.599,0.011,39.134-17.526,39.134-39.123v-136.962c0-10.766-8.807-19.573-19.573-19.573c-10.764,0-19.561,8.807-19.561,19.573
				V-1323c0,10.806-8.769,19.569-19.576,19.569c-10.79,0-19.557-8.773-19.557-19.563v-117.006c0-10.77-8.809-19.567-19.573-19.567
				c-10.76,0-19.563,8.797-19.563,19.567v117c0,10.806-8.769,19.569-19.56,19.569c-10.807,0-19.563-8.763-19.563-19.569v-117
				c0-10.77-8.805-19.567-19.576-19.558c-10.761,0-19.565,8.788-19.565,19.558v136.57c0,21.597,17.538,39.123,39.129,39.123h41.538
				v53.348C-5616.751-1210.361-5611.031-1210.018-5605.232-1210.018z"/>
		</g>
		<g>
			<g>
				<path fill="#F7941E" d="M-5815.555-308.363h-33.226v-141.49h-34.355v-28.931h101.937v28.931h-34.355V-308.363z"/>
				<path fill="#F7941E" d="M-5756.336-407.813h0.452c6.329-9.719,15.821-15.144,27.575-15.144c4.521,0,9.04,1.128,13.109,2.711
					l-3.843,29.384c-3.842-2.714-8.362-4.07-13.109-4.07c-21.924,0-24.185,19.438-24.185,36.616v49.952h-31.644v-110.978h31.644
					V-407.813z"/>
				<path fill="#F7941E" d="M-5669.547-419.341v60.124c0,12.657,2.034,27.8,18.082,27.8c16.046,0,18.082-15.143,18.082-27.8v-60.124
					h31.643v65.322c0,32.321-16.726,49.273-49.725,49.273c-33,0-49.726-16.953-49.726-49.273v-65.322H-5669.547z"/>
				<path fill="#F7941E" d="M-5480.147-449.854v37.52h48.143v28.931h-48.143v75.04h-33.226v-170.421h84.533v28.931H-5480.147z"/>
				<path fill="#F7941E" d="M-5300.686-363.739c0,34.355-23.507,58.993-58.314,58.993c-34.807,0-58.314-24.638-58.314-58.993
					c0-34.582,23.732-59.218,58.314-59.218C-5324.417-422.957-5300.686-398.321-5300.686-363.739z M-5385.218-363.739
					c0,14.916,9.945,30.965,26.219,30.965c16.274,0,26.218-16.049,26.218-30.965c0-15.371-9.944-31.192-26.218-31.192
					C-5375.273-394.931-5385.218-379.109-5385.218-363.739z"/>
				<path fill="#F7941E" d="M-5254.126-407.813h0.452c6.328-9.719,15.821-15.144,27.575-15.144c4.52,0,9.04,1.128,13.109,2.711
					l-3.842,29.384c-3.843-2.714-8.363-4.07-13.11-4.07c-21.923,0-24.184,19.438-24.184,36.616v49.952h-31.644v-110.978h31.644
					V-407.813z"/>
				<path fill="#F7941E" d="M-5171.179-378.657h0.452l33.224-40.684h41.137l-46.786,48.82l50.403,62.158h-41.587l-36.39-47.239
					h-0.452v47.239h-31.644v-191.668h31.644V-378.657z"/>
			</g>
			<path fill="#BCBEC0" d="M-5565.253-198.462c8.716,0,15.854-7.14,15.854-15.862v-274.542c-5.211-0.553-10.496-0.868-15.854-0.868
				c-5.364,0-10.65,0.315-15.854,0.868v274.542C-5581.106-205.602-5573.986-198.462-5565.253-198.462z"/>
			<g>
				<g>
					<path fill="#F7941E" d="M-5411.789-669.897c0,84.752-68.71,153.46-153.471,153.46c-84.751,0-153.458-68.708-153.458-153.46
						c0.007-84.764,68.703-153.464,153.458-153.464C-5480.499-823.362-5411.789-754.662-5411.789-669.897z"/>
				</g>
			</g>
			<path fill="#BCBEC0" d="M-5565.258-516.437c5.634,0,11.181-0.333,16.645-0.915v-51.743h40.294
				c20.948,0.012,37.957-16.999,37.957-37.946v-132.842c0-10.442-8.542-18.982-18.985-18.982c-10.44,0-18.972,8.541-18.972,18.982
				v113.861c0,10.481-8.505,18.98-18.987,18.98c-10.466,0-18.968-8.508-18.968-18.975v-113.485c0-10.447-8.544-18.979-18.984-18.979
				c-10.437,0-18.975,8.532-18.975,18.979v113.479c0,10.481-8.505,18.98-18.972,18.98c-10.481,0-18.975-8.499-18.975-18.98v-113.479
				c0-10.447-8.54-18.979-18.988-18.971c-10.436,0-18.976,8.524-18.976,18.971v132.46c0,20.948,17.011,37.946,37.951,37.946h40.289
				v51.743C-5576.43-516.77-5570.883-516.437-5565.258-516.437z"/>
		</g>
	</g>
	<g>
		<g>
			<path fill="#BCBEC0" d="M-5605.227-1021.804c8.986,0,16.345-7.361,16.345-16.354v-145.4c-5.373-0.57-10.821-0.895-16.345-0.895
				c-5.53,0-10.98,0.325-16.345,0.895v145.4C-5621.571-1029.165-5614.231-1021.804-5605.227-1021.804z"/>
			<g>
				<path fill="#F7941E" d="M-5807.828-1001.188h-34.257v-145.88h-35.42v-29.829h105.098v29.829h-35.42V-1001.188z"/>
				<path fill="#F7941E" d="M-5746.772-1103.724h0.465c6.525-10.021,16.312-15.613,28.43-15.613c4.662,0,9.321,1.164,13.516,2.796
					l-3.962,30.297c-3.962-2.8-8.621-4.198-13.516-4.198c-22.604,0-24.934,20.042-24.934,37.752v51.502h-32.626v-114.419h32.626
					V-1103.724z"/>
				<path fill="#BCBEC0" d="M-5657.293-1115.607v61.988c0,13.047,2.097,28.66,18.643,28.66c16.544,0,18.643-15.613,18.643-28.66
					v-61.988h32.624v67.346c0,33.323-17.244,50.803-51.267,50.803c-34.023,0-51.268-17.48-51.268-50.803v-67.346H-5657.293z"/>
				<path fill="#F7941E" d="M-5529.361-1147.067v38.685h49.637v29.828h-49.637v77.367h-34.256v-175.708h87.154v29.829H-5529.361z"/>
				<path fill="#F7941E" d="M-5344.333-1058.282c0,35.421-24.236,60.824-60.123,60.824c-35.888,0-60.122-25.403-60.122-60.824
					c0-35.655,24.468-61.054,60.122-61.054S-5344.333-1093.937-5344.333-1058.282z M-5431.487-1058.282
					c0,15.379,10.253,31.925,27.031,31.925s27.031-16.546,27.031-31.925c0-15.847-10.253-32.16-27.031-32.16
					S-5431.487-1074.129-5431.487-1058.282z"/>
				<path fill="#F7941E" d="M-5296.331-1103.724h0.466c6.524-10.021,16.312-15.613,28.43-15.613c4.661,0,9.321,1.164,13.517,2.796
					l-3.962,30.297c-3.962-2.8-8.622-4.198-13.517-4.198c-22.604,0-24.934,20.042-24.934,37.752v51.502h-32.625v-114.419h32.625
					V-1103.724z"/>
				<path fill="#F7941E" d="M-5210.811-1073.661h0.466l34.256-41.946h42.412l-48.237,50.334l51.966,64.085h-42.878l-37.519-48.706
					h-0.466v48.706h-32.625V-1198.8h32.625V-1073.661z"/>
			</g>
			<g>
				<path fill="#F7941E" d="M-5447.003-1368.238c0,87.382-70.841,158.221-158.23,158.221c-87.38,0-158.218-70.839-158.218-158.221
					c0.007-87.391,70.835-158.225,158.218-158.225C-5517.844-1526.463-5447.003-1455.629-5447.003-1368.238z"/>
			</g>
			<path fill="#BCBEC0" d="M-5605.232-1210.018c5.81,0,11.528-0.344,17.162-0.943v-53.348h41.544
				c21.599,0.011,39.134-17.526,39.134-39.123v-136.962c0-10.766-8.807-19.573-19.573-19.573c-10.764,0-19.561,8.807-19.561,19.573
				V-1323c0,10.806-8.769,19.569-19.576,19.569c-10.79,0-19.557-8.773-19.557-19.563v-117.006c0-10.77-8.809-19.567-19.573-19.567
				c-10.76,0-19.563,8.797-19.563,19.567v117c0,10.806-8.769,19.569-19.56,19.569c-10.807,0-19.563-8.763-19.563-19.569v-117
				c0-10.77-8.805-19.567-19.576-19.558c-10.761,0-19.565,8.788-19.565,19.558v136.57c0,21.597,17.538,39.123,39.129,39.123h41.538
				v53.348C-5616.751-1210.361-5611.031-1210.018-5605.232-1210.018z"/>
		</g>
		<g>
			<g>
				<path fill="#F7941E" d="M-5815.555-308.363h-33.226v-141.49h-34.355v-28.931h101.937v28.931h-34.355V-308.363z"/>
				<path fill="#F7941E" d="M-5756.336-407.813h0.452c6.329-9.719,15.821-15.144,27.575-15.144c4.521,0,9.04,1.128,13.109,2.711
					l-3.843,29.384c-3.842-2.714-8.362-4.07-13.109-4.07c-21.924,0-24.185,19.438-24.185,36.616v49.952h-31.644v-110.978h31.644
					V-407.813z"/>
				<path fill="#F7941E" d="M-5669.547-419.341v60.124c0,12.657,2.034,27.8,18.082,27.8c16.046,0,18.082-15.143,18.082-27.8v-60.124
					h31.643v65.322c0,32.321-16.726,49.273-49.725,49.273c-33,0-49.726-16.953-49.726-49.273v-65.322H-5669.547z"/>
				<path fill="#F7941E" d="M-5480.147-449.854v37.52h48.143v28.931h-48.143v75.04h-33.226v-170.421h84.533v28.931H-5480.147z"/>
				<path fill="#F7941E" d="M-5300.686-363.739c0,34.355-23.507,58.993-58.314,58.993c-34.807,0-58.314-24.638-58.314-58.993
					c0-34.582,23.732-59.218,58.314-59.218C-5324.417-422.957-5300.686-398.321-5300.686-363.739z M-5385.218-363.739
					c0,14.916,9.945,30.965,26.219,30.965c16.274,0,26.218-16.049,26.218-30.965c0-15.371-9.944-31.192-26.218-31.192
					C-5375.273-394.931-5385.218-379.109-5385.218-363.739z"/>
				<path fill="#F7941E" d="M-5254.126-407.813h0.452c6.328-9.719,15.821-15.144,27.575-15.144c4.52,0,9.04,1.128,13.109,2.711
					l-3.842,29.384c-3.843-2.714-8.363-4.07-13.11-4.07c-21.923,0-24.184,19.438-24.184,36.616v49.952h-31.644v-110.978h31.644
					V-407.813z"/>
				<path fill="#F7941E" d="M-5171.179-378.657h0.452l33.224-40.684h41.137l-46.786,48.82l50.403,62.158h-41.587l-36.39-47.239
					h-0.452v47.239h-31.644v-191.668h31.644V-378.657z"/>
			</g>
			<path fill="#BCBEC0" d="M-5565.253-198.462c8.716,0,15.854-7.14,15.854-15.862v-274.542c-5.211-0.553-10.496-0.868-15.854-0.868
				c-5.364,0-10.65,0.315-15.854,0.868v274.542C-5581.106-205.602-5573.986-198.462-5565.253-198.462z"/>
			<g>
				<g>
					<path fill="#F7941E" d="M-5411.789-669.897c0,84.752-68.71,153.46-153.471,153.46c-84.751,0-153.458-68.708-153.458-153.46
						c0.007-84.764,68.703-153.464,153.458-153.464C-5480.499-823.362-5411.789-754.662-5411.789-669.897z"/>
				</g>
			</g>
			<path fill="#BCBEC0" d="M-5565.258-516.437c5.634,0,11.181-0.333,16.645-0.915v-51.743h40.294
				c20.948,0.012,37.957-16.999,37.957-37.946v-132.842c0-10.442-8.542-18.982-18.985-18.982c-10.44,0-18.972,8.541-18.972,18.982
				v113.861c0,10.481-8.505,18.98-18.987,18.98c-10.466,0-18.968-8.508-18.968-18.975v-113.485c0-10.447-8.544-18.979-18.984-18.979
				c-10.437,0-18.975,8.532-18.975,18.979v113.479c0,10.481-8.505,18.98-18.972,18.98c-10.481,0-18.975-8.499-18.975-18.98v-113.479
				c0-10.447-8.54-18.979-18.988-18.971c-10.436,0-18.976,8.524-18.976,18.971v132.46c0,20.948,17.011,37.946,37.951,37.946h40.289
				v51.743C-5576.43-516.77-5570.883-516.437-5565.258-516.437z"/>
		</g>
	</g>
	<g>
		<path fill="#F7941E" d="M-1717.716,306.127h-33.141V164.996h-34.269v-28.857h101.678v28.857h-34.269V306.127z"/>
		<path fill="#F7941E" d="M-1658.649,206.93h0.451c6.312-9.694,15.782-15.105,27.504-15.105c4.509,0,9.019,1.127,13.076,2.705
			l-3.833,29.309c-3.833-2.705-8.341-4.058-13.076-4.058c-21.869,0-24.123,19.389-24.123,36.522v49.824h-31.563V195.432h31.563
			V206.93z"/>
		<path fill="#F7941E" d="M-1572.083,195.432V255.4c0,12.626,2.029,27.73,18.035,27.73c16.008,0,18.036-15.104,18.036-27.73v-59.969
			h31.563v65.154c0,32.24-16.684,49.148-49.6,49.148c-32.915,0-49.598-16.908-49.598-49.148v-65.154H-1572.083z"/>
		<path fill="#F7941E" d="M-1448.315,164.996v37.424h48.02v28.857h-48.02v74.85h-33.142V136.139h84.317v28.857H-1448.315z"/>
		<path fill="#F7941E" d="M-1269.311,250.893c0,34.268-23.447,58.842-58.166,58.842s-58.166-24.574-58.166-58.842
			c0-34.494,23.673-59.068,58.166-59.068C-1292.983,191.824-1269.311,216.398-1269.311,250.893z M-1353.629,250.893
			c0,14.879,9.92,30.886,26.152,30.886s26.152-16.007,26.152-30.886c0-15.331-9.92-31.112-26.152-31.112
			S-1353.629,235.562-1353.629,250.893z"/>
		<path fill="#F7941E" d="M-1222.873,206.93h0.451c6.312-9.694,15.781-15.105,27.505-15.105c4.509,0,9.018,1.127,13.076,2.705
			l-3.833,29.309c-3.833-2.705-8.342-4.058-13.076-4.058c-21.868,0-24.123,19.389-24.123,36.522v49.824h-31.562V195.432h31.562
			V206.93z"/>
		<path fill="#F7941E" d="M-1140.136,236.012h0.451l33.141-40.58h41.032l-46.668,48.697l50.274,61.998h-41.482l-36.297-47.119
			h-0.451v47.119h-31.562V114.946h31.562V236.012z"/>
	</g>
	<g>
		<path fill="#BCBEC0" d="M-1970.963-12.584c89.939,0,162.848,72.912,162.848,162.859c0,89.937-72.908,162.852-162.848,162.852
			c-89.949-0.006-162.854-72.91-162.854-162.852C-2133.818,60.328-2060.913-12.584-1970.963-12.584z"/>
	</g>
	<g>
		<path fill="#F7941E" d="M-1970.963,3.428c81.096,0,146.836,65.744,146.836,146.848c0,81.094-65.74,146.839-146.836,146.839
			c-81.105-0.005-146.843-65.74-146.843-146.839C-2117.806,69.172-2052.069,3.428-1970.963,3.428z"/>
	</g>
	<path fill="#BCBEC0" d="M-1824.127,150.275c0-5.39-0.316-10.7-0.872-15.927h-49.511V95.793
		c0.012-20.047-16.264-36.318-36.308-36.318h-127.111c-9.991,0-18.164,8.172-18.164,18.167c0,9.988,8.173,18.151,18.164,18.151
		h108.947c10.03,0,18.164,8.137,18.164,18.167c0,10.014-8.142,18.151-18.156,18.151h-108.591c-9.996,0-18.159,8.177-18.159,18.164
		c0,9.986,8.163,18.156,18.159,18.158h108.583c10.03,0,18.164,8.138,18.164,18.151c0,10.03-8.134,18.156-18.164,18.156h-108.583
		c-9.996,0-18.159,8.172-18.152,18.167c0,9.988,8.156,18.16,18.152,18.16h126.747c20.044,0,36.308-16.279,36.308-36.315v-38.552
		H-1825C-1824.444,160.965-1824.127,155.657-1824.127,150.275z"/>
	<rect x="-1785.338" y="136.315" fill="#BCBEC0" width="102.103" height="28.591"/>
	<rect x="-1481.338" y="136.315" fill="#BCBEC0" width="102.104" height="28.591"/>
	<g>
		<g>
			<path fill="#BCBEC0" d="M151.256,326.959c38.129,0,69.038,30.911,69.038,69.043c0,38.127-30.909,69.039-69.038,69.039
				c-38.133-0.002-69.04-30.909-69.04-69.039C82.216,357.87,113.123,326.959,151.256,326.959z"/>
		</g>
		<g>
			<path fill="#F7941E" d="M151.256,333.747c34.38,0,62.25,27.872,62.25,62.255c0,34.379-27.87,62.25-62.25,62.25
				c-34.383-0.002-62.252-27.869-62.252-62.25C89.004,361.619,116.873,333.747,151.256,333.747z"/>
		</g>
		<path fill="#BCBEC0" d="M213.506,396.002c0-2.285-0.135-4.537-0.37-6.753h-20.989v-16.345c0.005-8.499-6.895-15.396-15.393-15.396
			h-53.887c-4.236,0-7.701,3.464-7.701,7.702c0,4.234,3.465,7.694,7.701,7.694h46.187c4.252,0,7.7,3.449,7.7,7.702
			c0,4.245-3.451,7.694-7.697,7.694h-46.036c-4.238,0-7.698,3.467-7.698,7.701c0,4.233,3.46,7.696,7.698,7.697h46.032
			c4.252,0,7.7,3.45,7.7,7.695c0,4.253-3.448,7.697-7.7,7.697h-46.032c-4.238,0-7.698,3.465-7.695,7.702
			c0,4.233,3.458,7.698,7.695,7.698h53.732c8.498,0,15.393-6.901,15.393-15.396v-16.343h20.989
			C213.371,400.533,213.506,398.283,213.506,396.002z"/>
		<rect x="229.95" y="390.084" fill="#BCBEC0" width="43.285" height="12.12"/>
		<rect x="358.827" y="390.084" fill="#BCBEC0" width="35.23" height="12.12"/>
		<rect x="259.891" y="390.084" fill="#F7941E" width="126.393" height="12.12"/>
		<g>
			<path fill="#F7941E" d="M258.618,462.073h-14.05v-59.83H230.04v-12.234h43.105v12.234h-14.527V462.073z"/>
			<path fill="#F7941E" d="M283.658,420.02h0.191c2.676-4.109,6.69-6.403,11.66-6.403c1.912,0,3.824,0.478,5.543,1.146
				l-1.625,12.425c-1.625-1.146-3.537-1.721-5.543-1.721c-9.271,0-10.227,8.22-10.227,15.484v21.122h-13.381v-46.928h13.381V420.02z
				"/>
			<path fill="#F7941E" d="M320.356,415.146v25.423c0,5.353,0.86,11.756,7.646,11.756s7.646-6.403,7.646-11.756v-25.423h13.38
				v27.621c0,13.668-7.072,20.836-21.026,20.836s-21.027-7.168-21.027-20.836v-27.621H320.356z"/>
			<path fill="#F7941E" d="M372.826,402.243v15.864h20.357v12.234h-20.357v31.731h-14.049v-72.064h35.744v12.234H372.826z"/>
			<path fill="#F7941E" d="M448.714,438.657c0,14.527-9.941,24.945-24.659,24.945c-14.719,0-24.659-10.418-24.659-24.945
				c0-14.623,10.036-25.041,24.659-25.041S448.714,424.034,448.714,438.657z M412.968,438.657c0,6.308,4.205,13.093,11.087,13.093
				c6.881,0,11.086-6.785,11.086-13.093c0-6.5-4.205-13.19-11.086-13.19C417.173,425.467,412.968,432.157,412.968,438.657z"/>
			<path fill="#F7941E" d="M468.4,420.02h0.191c2.677-4.109,6.69-6.403,11.66-6.403c1.912,0,3.823,0.478,5.543,1.146l-1.624,12.425
				c-1.626-1.146-3.537-1.721-5.543-1.721c-9.271,0-10.228,8.22-10.228,15.484v21.122h-13.38v-46.928h13.38V420.02z"/>
			<path fill="#F7941E" d="M503.476,432.349h0.191l14.05-17.203h17.394l-19.784,20.645l21.314,26.283h-17.586l-15.388-19.976h-0.191
				v19.976h-13.381v-81.049h13.381V432.349z"/>
		</g>
	</g>
	<g>
		<g>
			<path fill="#BCBEC0" d="M-1761.236,1497.206c37.989,0,68.784,30.797,68.784,68.788c0,37.987-30.795,68.786-68.784,68.786
				c-37.993-0.003-68.786-30.796-68.786-68.786C-1830.022,1528.003-1799.229,1497.206-1761.236,1497.206z"/>
		</g>
		<g>
			<path fill="#F7941E" d="M-1761.236,1503.969c34.253,0,62.021,27.77,62.021,62.025c0,34.253-27.767,62.022-62.021,62.022
				c-34.257-0.002-62.023-27.768-62.023-62.022C-1823.259,1531.738-1795.493,1503.969-1761.236,1503.969z"/>
		</g>
		<path fill="#BCBEC0" d="M-1699.215,1565.994c0-2.276-0.133-4.52-0.368-6.727h-20.912v-16.285c0.005-8.468-6.87-15.34-15.336-15.34
			h-53.689c-4.22,0-7.672,3.451-7.672,7.673c0,4.219,3.452,7.667,7.672,7.667h46.017c4.236,0,7.672,3.437,7.672,7.673
			c0,4.229-3.438,7.667-7.668,7.667h-45.867c-4.222,0-7.67,3.454-7.67,7.672c0,4.219,3.448,7.669,7.67,7.67h45.863
			c4.236,0,7.672,3.438,7.672,7.667c0,4.236-3.436,7.669-7.672,7.669h-45.863c-4.222,0-7.67,3.451-7.667,7.674
			c0,4.219,3.445,7.67,7.667,7.67h53.535c8.466,0,15.336-6.876,15.336-15.339v-16.283h20.912
			C-1699.349,1570.51-1699.215,1568.268-1699.215,1565.994z"/>
		<rect x="-1682.831" y="1560.099" fill="#BCBEC0" width="43.126" height="12.076"/>
		<rect x="-1627.321" y="1560.099" fill="#BCBEC0" width="63.132" height="12.076"/>
		<rect x="-1507.645" y="1560.099" fill="#BCBEC0" width="79.719" height="12.076"/>
		<g>
			<path fill="#F7941E" d="M-1654.269,1631.823h-13.998v-59.611h-14.475v-12.188h42.947v12.188h-14.474V1631.823z"/>
			<path fill="#F7941E" d="M-1629.32,1589.925h0.19c2.667-4.096,6.667-6.381,11.618-6.381c1.904,0,3.809,0.477,5.522,1.143
				l-1.618,12.38c-1.619-1.143-3.523-1.715-5.523-1.715c-9.237,0-10.189,8.189-10.189,15.427v21.045h-13.332v-46.756h13.332
				V1589.925z"/>
			<path fill="#F7941E" d="M-1592.756,1585.067v25.33c0,5.332,0.857,11.713,7.617,11.713c6.762,0,7.618-6.381,7.618-11.713v-25.33
				h13.332v27.521c0,13.617-7.047,20.759-20.95,20.759c-13.902,0-20.949-7.142-20.949-20.759v-27.521H-1592.756z"/>
			<path fill="#F7941E" d="M-1540.479,1572.212v15.808h20.282v12.188h-20.282v31.615h-13.999v-71.8h35.614v12.188H-1540.479z"/>
			<path fill="#F7941E" d="M-1464.872,1608.493c0,14.475-9.904,24.854-24.568,24.854s-24.568-10.379-24.568-24.854
				c0-14.569,9.999-24.949,24.568-24.949S-1464.872,1593.924-1464.872,1608.493z M-1500.486,1608.493
				c0,6.285,4.189,13.045,11.046,13.045s11.046-6.76,11.046-13.045c0-6.476-4.189-13.142-11.046-13.142
				S-1500.486,1602.018-1500.486,1608.493z"/>
			<path fill="#F7941E" d="M-1445.257,1589.925h0.19c2.667-4.096,6.666-6.381,11.618-6.381c1.904,0,3.809,0.477,5.522,1.143
				l-1.618,12.38c-1.619-1.143-3.523-1.715-5.523-1.715c-9.237,0-10.189,8.189-10.189,15.427v21.045h-13.331v-46.756h13.331
				V1589.925z"/>
			<path fill="#F7941E" d="M-1410.311,1602.208h0.19l13.998-17.141h17.331l-19.711,20.569l21.234,26.187h-17.521l-15.331-19.902
				h-0.19v19.902h-13.331v-80.751h13.331V1602.208z"/>
		</g>
	</g>
</g>
<g id="Layer_2">
</g>
</svg>
