<?xml version="1.0" encoding="utf-8"?>
<!-- Generator: Adobe Illustrator 15.1.0, SVG Export Plug-In . SVG Version: 6.00 Build 0)  -->
<!DOCTYPE svg PUBLIC "-//W3C//DTD SVG 1.1//EN" "http://www.w3.org/Graphics/SVG/1.1/DTD/svg11.dtd">
<svg version="1.1" xmlns="http://www.w3.org/2000/svg" xmlns:xlink="http://www.w3.org/1999/xlink" x="0px" y="0px" width="612px"
	 height="792px" viewBox="0 0 612 792" enable-background="new 0 0 612 792" xml:space="preserve">
<g id="Layer_1">
	<g>
		<g>
			<path fill="#BCBEC0" d="M-5605.227-1021.804c8.986,0,16.345-7.361,16.345-16.354v-145.4c-5.373-0.57-10.821-0.895-16.345-0.895
				c-5.53,0-10.98,0.325-16.345,0.895v145.4C-5621.571-1029.165-5614.231-1021.804-5605.227-1021.804z"/>
			<g>
				<path fill="#F7941E" d="M-5807.828-1001.188h-34.257v-145.88h-35.42v-29.829h105.098v29.829h-35.42V-1001.188z"/>
				<path fill="#F7941E" d="M-5746.772-1103.724h0.465c6.525-10.021,16.312-15.613,28.43-15.613c4.662,0,9.321,1.164,13.516,2.796
					l-3.962,30.297c-3.962-2.8-8.621-4.198-13.516-4.198c-22.604,0-24.934,20.042-24.934,37.752v51.502h-32.626v-114.419h32.626
					V-1103.724z"/>
				<path fill="#BCBEC0" d="M-5657.293-1115.607v61.988c0,13.047,2.097,28.66,18.643,28.66c16.544,0,18.643-15.613,18.643-28.66
					v-61.988h32.624v67.346c0,33.323-17.244,50.803-51.267,50.803c-34.023,0-51.268-17.48-51.268-50.803v-67.346H-5657.293z"/>
				<path fill="#F7941E" d="M-5529.361-1147.067v38.685h49.637v29.828h-49.637v77.367h-34.256v-175.708h87.154v29.829H-5529.361z"/>
				<path fill="#F7941E" d="M-5344.333-1058.282c0,35.421-24.236,60.824-60.123,60.824c-35.888,0-60.122-25.403-60.122-60.824
					c0-35.655,24.468-61.054,60.122-61.054S-5344.333-1093.937-5344.333-1058.282z M-5431.487-1058.282
					c0,15.379,10.253,31.925,27.031,31.925s27.031-16.546,27.031-31.925c0-15.847-10.253-32.16-27.031-32.16
					S-5431.487-1074.129-5431.487-1058.282z"/>
				<path fill="#F7941E" d="M-5296.331-1103.724h0.466c6.524-10.021,16.312-15.613,28.43-15.613c4.661,0,9.321,1.164,13.517,2.796
					l-3.962,30.297c-3.962-2.8-8.622-4.198-13.517-4.198c-22.604,0-24.934,20.042-24.934,37.752v51.502h-32.625v-114.419h32.625
					V-1103.724z"/>
				<path fill="#F7941E" d="M-5210.811-1073.661h0.466l34.256-41.946h42.412l-48.237,50.334l51.966,64.085h-42.878l-37.519-48.706
					h-0.466v48.706h-32.625V-1198.8h32.625V-1073.661z"/>
			</g>
			<g>
				<path fill="#F7941E" d="M-5447.003-1368.238c0,87.382-70.841,158.221-158.23,158.221c-87.38,0-158.218-70.839-158.218-158.221
					c0.007-87.391,70.835-158.225,158.218-158.225C-5517.844-1526.463-5447.003-1455.629-5447.003-1368.238z"/>
			</g>
			<path fill="#BCBEC0" d="M-5605.232-1210.018c5.81,0,11.528-0.344,17.162-0.943v-53.348h41.544
				c21.599,0.011,39.134-17.526,39.134-39.123v-136.962c0-10.766-8.807-19.573-19.573-19.573c-10.764,0-19.561,8.807-19.561,19.573
				V-1323c0,10.806-8.769,19.569-19.576,19.569c-10.79,0-19.557-8.773-19.557-19.563v-117.006c0-10.77-8.809-19.567-19.573-19.567
				c-10.76,0-19.563,8.797-19.563,19.567v117c0,10.806-8.769,19.569-19.56,19.569c-10.807,0-19.563-8.763-19.563-19.569v-117
				c0-10.77-8.805-19.567-19.576-19.558c-10.761,0-19.565,8.788-19.565,19.558v136.57c0,21.597,17.538,39.123,39.129,39.123h41.538
				v53.348C-5616.751-1210.361-5611.031-1210.018-5605.232-1210.018z"/>
		</g>
		<g>
			<g>
				<path fill="#F7941E" d="M-5815.555-308.363h-33.226v-141.49h-34.355v-28.931h101.937v28.931h-34.355V-308.363z"/>
				<path fill="#F7941E" d="M-5756.336-407.813h0.452c6.329-9.719,15.821-15.144,27.575-15.144c4.521,0,9.04,1.128,13.109,2.711
					l-3.843,29.384c-3.842-2.714-8.362-4.07-13.109-4.07c-21.924,0-24.185,19.438-24.185,36.616v49.952h-31.644v-110.978h31.644
					V-407.813z"/>
				<path fill="#F7941E" d="M-5669.547-419.341v60.124c0,12.657,2.034,27.8,18.082,27.8c16.046,0,18.082-15.143,18.082-27.8v-60.124
					h31.643v65.322c0,32.321-16.726,49.273-49.725,49.273c-33,0-49.726-16.953-49.726-49.273v-65.322H-5669.547z"/>
				<path fill="#F7941E" d="M-5480.147-449.854v37.52h48.143v28.931h-48.143v75.04h-33.226v-170.421h84.533v28.931H-5480.147z"/>
				<path fill="#F7941E" d="M-5300.686-363.739c0,34.355-23.507,58.993-58.314,58.993c-34.807,0-58.314-24.638-58.314-58.993
					c0-34.582,23.732-59.218,58.314-59.218C-5324.417-422.957-5300.686-398.321-5300.686-363.739z M-5385.218-363.739
					c0,14.916,9.945,30.965,26.219,30.965c16.274,0,26.218-16.049,26.218-30.965c0-15.371-9.944-31.192-26.218-31.192
					C-5375.273-394.931-5385.218-379.109-5385.218-363.739z"/>
				<path fill="#F7941E" d="M-5254.126-407.813h0.452c6.328-9.719,15.821-15.144,27.575-15.144c4.52,0,9.04,1.128,13.109,2.711
					l-3.842,29.384c-3.843-2.714-8.363-4.07-13.11-4.07c-21.923,0-24.184,19.438-24.184,36.616v49.952h-31.644v-110.978h31.644
					V-407.813z"/>
				<path fill="#F7941E" d="M-5171.179-378.657h0.452l33.224-40.684h41.137l-46.786,48.82l50.403,62.158h-41.587l-36.39-47.239
					h-0.452v47.239h-31.644v-191.668h31.644V-378.657z"/>
			</g>
			<path fill="#BCBEC0" d="M-5565.253-198.462c8.716,0,15.854-7.14,15.854-15.862v-274.542c-5.211-0.553-10.496-0.868-15.854-0.868
				c-5.364,0-10.65,0.315-15.854,0.868v274.542C-5581.106-205.602-5573.986-198.462-5565.253-198.462z"/>
			<g>
				<g>
					<path fill="#F7941E" d="M-5411.789-669.897c0,84.752-68.71,153.46-153.471,153.46c-84.751,0-153.458-68.708-153.458-153.46
						c0.007-84.764,68.703-153.464,153.458-153.464C-5480.499-823.362-5411.789-754.662-5411.789-669.897z"/>
				</g>
			</g>
			<path fill="#BCBEC0" d="M-5565.258-516.437c5.634,0,11.181-0.333,16.645-0.915v-51.743h40.294
				c20.948,0.012,37.957-16.999,37.957-37.946v-132.842c0-10.442-8.542-18.982-18.985-18.982c-10.44,0-18.972,8.541-18.972,18.982
				v113.861c0,10.481-8.505,18.98-18.987,18.98c-10.466,0-18.968-8.508-18.968-18.975v-113.485c0-10.447-8.544-18.979-18.984-18.979
				c-10.437,0-18.975,8.532-18.975,18.979v113.479c0,10.481-8.505,18.98-18.972,18.98c-10.481,0-18.975-8.499-18.975-18.98v-113.479
				c0-10.447-8.54-18.979-18.988-18.971c-10.436,0-18.976,8.524-18.976,18.971v132.46c0,20.948,17.011,37.946,37.951,37.946h40.289
				v51.743C-5576.43-516.77-5570.883-516.437-5565.258-516.437z"/>
		</g>
	</g>
	<g>
		<g>
			<path fill="#BCBEC0" d="M-5605.227-1021.804c8.986,0,16.345-7.361,16.345-16.354v-145.4c-5.373-0.57-10.821-0.895-16.345-0.895
				c-5.53,0-10.98,0.325-16.345,0.895v145.4C-5621.571-1029.165-5614.231-1021.804-5605.227-1021.804z"/>
			<g>
				<path fill="#F7941E" d="M-5807.828-1001.188h-34.257v-145.88h-35.42v-29.829h105.098v29.829h-35.42V-1001.188z"/>
				<path fill="#F7941E" d="M-5746.772-1103.724h0.465c6.525-10.021,16.312-15.613,28.43-15.613c4.662,0,9.321,1.164,13.516,2.796
					l-3.962,30.297c-3.962-2.8-8.621-4.198-13.516-4.198c-22.604,0-24.934,20.042-24.934,37.752v51.502h-32.626v-114.419h32.626
					V-1103.724z"/>
				<path fill="#BCBEC0" d="M-5657.293-1115.607v61.988c0,13.047,2.097,28.66,18.643,28.66c16.544,0,18.643-15.613,18.643-28.66
					v-61.988h32.624v67.346c0,33.323-17.244,50.803-51.267,50.803c-34.023,0-51.268-17.48-51.268-50.803v-67.346H-5657.293z"/>
				<path fill="#F7941E" d="M-5529.361-1147.067v38.685h49.637v29.828h-49.637v77.367h-34.256v-175.708h87.154v29.829H-5529.361z"/>
				<path fill="#F7941E" d="M-5344.333-1058.282c0,35.421-24.236,60.824-60.123,60.824c-35.888,0-60.122-25.403-60.122-60.824
					c0-35.655,24.468-61.054,60.122-61.054S-5344.333-1093.937-5344.333-1058.282z M-5431.487-1058.282
					c0,15.379,10.253,31.925,27.031,31.925s27.031-16.546,27.031-31.925c0-15.847-10.253-32.16-27.031-32.16
					S-5431.487-1074.129-5431.487-1058.282z"/>
				<path fill="#F7941E" d="M-5296.331-1103.724h0.466c6.524-10.021,16.312-15.613,28.43-15.613c4.661,0,9.321,1.164,13.517,2.796
					l-3.962,30.297c-3.962-2.8-8.622-4.198-13.517-4.198c-22.604,0-24.934,20.042-24.934,37.752v51.502h-32.625v-114.419h32.625
					V-1103.724z"/>
				<path fill="#F7941E" d="M-5210.811-1073.661h0.466l34.256-41.946h42.412l-48.237,50.334l51.966,64.085h-42.878l-37.519-48.706
					h-0.466v48.706h-32.625V-1198.8h32.625V-1073.661z"/>
			</g>
			<g>
				<path fill="#F7941E" d="M-5447.003-1368.238c0,87.382-70.841,158.221-158.23,158.221c-87.38,0-158.218-70.839-158.218-158.221
					c0.007-87.391,70.835-158.225,158.218-158.225C-5517.844-1526.463-5447.003-1455.629-5447.003-1368.238z"/>
			</g>
			<path fill="#BCBEC0" d="M-5605.232-1210.018c5.81,0,11.528-0.344,17.162-0.943v-53.348h41.544
				c21.599,0.011,39.134-17.526,39.134-39.123v-136.962c0-10.766-8.807-19.573-19.573-19.573c-10.764,0-19.561,8.807-19.561,19.573
				V-1323c0,10.806-8.769,19.569-19.576,19.569c-10.79,0-19.557-8.773-19.557-19.563v-117.006c0-10.77-8.809-19.567-19.573-19.567
				c-10.76,0-19.563,8.797-19.563,19.567v117c0,10.806-8.769,19.569-19.56,19.569c-10.807,0-19.563-8.763-19.563-19.569v-117
				c0-10.77-8.805-19.567-19.576-19.558c-10.761,0-19.565,8.788-19.565,19.558v136.57c0,21.597,17.538,39.123,39.129,39.123h41.538
				v53.348C-5616.751-1210.361-5611.031-1210.018-5605.232-1210.018z"/>
		</g>
		<g>
			<g>
				<path fill="#F7941E" d="M-5815.555-308.363h-33.226v-141.49h-34.355v-28.931h101.937v28.931h-34.355V-308.363z"/>
				<path fill="#F7941E" d="M-5756.336-407.813h0.452c6.329-9.719,15.821-15.144,27.575-15.144c4.521,0,9.04,1.128,13.109,2.711
					l-3.843,29.384c-3.842-2.714-8.362-4.07-13.109-4.07c-21.924,0-24.185,19.438-24.185,36.616v49.952h-31.644v-110.978h31.644
					V-407.813z"/>
				<path fill="#F7941E" d="M-5669.547-419.341v60.124c0,12.657,2.034,27.8,18.082,27.8c16.046,0,18.082-15.143,18.082-27.8v-60.124
					h31.643v65.322c0,32.321-16.726,49.273-49.725,49.273c-33,0-49.726-16.953-49.726-49.273v-65.322H-5669.547z"/>
				<path fill="#F7941E" d="M-5480.147-449.854v37.52h48.143v28.931h-48.143v75.04h-33.226v-170.421h84.533v28.931H-5480.147z"/>
				<path fill="#F7941E" d="M-5300.686-363.739c0,34.355-23.507,58.993-58.314,58.993c-34.807,0-58.314-24.638-58.314-58.993
					c0-34.582,23.732-59.218,58.314-59.218C-5324.417-422.957-5300.686-398.321-5300.686-363.739z M-5385.218-363.739
					c0,14.916,9.945,30.965,26.219,30.965c16.274,0,26.218-16.049,26.218-30.965c0-15.371-9.944-31.192-26.218-31.192
					C-5375.273-394.931-5385.218-379.109-5385.218-363.739z"/>
				<path fill="#F7941E" d="M-5254.126-407.813h0.452c6.328-9.719,15.821-15.144,27.575-15.144c4.52,0,9.04,1.128,13.109,2.711
					l-3.842,29.384c-3.843-2.714-8.363-4.07-13.11-4.07c-21.923,0-24.184,19.438-24.184,36.616v49.952h-31.644v-110.978h31.644
					V-407.813z"/>
				<path fill="#F7941E" d="M-5171.179-378.657h0.452l33.224-40.684h41.137l-46.786,48.82l50.403,62.158h-41.587l-36.39-47.239
					h-0.452v47.239h-31.644v-191.668h31.644V-378.657z"/>
			</g>
			<path fill="#BCBEC0" d="M-5565.253-198.462c8.716,0,15.854-7.14,15.854-15.862v-274.542c-5.211-0.553-10.496-0.868-15.854-0.868
				c-5.364,0-10.65,0.315-15.854,0.868v274.542C-5581.106-205.602-5573.986-198.462-5565.253-198.462z"/>
			<g>
				<g>
					<path fill="#F7941E" d="M-5411.789-669.897c0,84.752-68.71,153.46-153.471,153.46c-84.751,0-153.458-68.708-153.458-153.46
						c0.007-84.764,68.703-153.464,153.458-153.464C-5480.499-823.362-5411.789-754.662-5411.789-669.897z"/>
				</g>
			</g>
			<path fill="#BCBEC0" d="M-5565.258-516.437c5.634,0,11.181-0.333,16.645-0.915v-51.743h40.294
				c20.948,0.012,37.957-16.999,37.957-37.946v-132.842c0-10.442-8.542-18.982-18.985-18.982c-10.44,0-18.972,8.541-18.972,18.982
				v113.861c0,10.481-8.505,18.98-18.987,18.98c-10.466,0-18.968-8.508-18.968-18.975v-113.485c0-10.447-8.544-18.979-18.984-18.979
				c-10.437,0-18.975,8.532-18.975,18.979v113.479c0,10.481-8.505,18.98-18.972,18.98c-10.481,0-18.975-8.499-18.975-18.98v-113.479
				c0-10.447-8.54-18.979-18.988-18.971c-10.436,0-18.976,8.524-18.976,18.971v132.46c0,20.948,17.011,37.946,37.951,37.946h40.289
				v51.743C-5576.43-516.77-5570.883-516.437-5565.258-516.437z"/>
		</g>
	</g>
	<g>
		<g>
			<path fill="#F7941E" d="M264.904,467.429h-15.188v-64.681h-15.705v-13.226h46.599v13.226h-15.705V467.429z"/>
			<path fill="#F7941E" d="M291.974,421.967h0.207c2.893-4.443,7.233-6.923,12.605-6.923c2.067,0,4.134,0.517,5.993,1.239
				l-1.756,13.433c-1.757-1.24-3.823-1.859-5.993-1.859c-10.023,0-11.057,8.885-11.057,16.737v22.835h-14.465v-50.731h14.465
				V421.967z"/>
			<path fill="#F7941E" d="M331.648,416.697v27.483c0,5.786,0.93,12.709,8.265,12.709c7.337,0,8.266-6.923,8.266-12.709v-27.483
				h14.467v29.86c0,14.775-7.646,22.524-22.732,22.524c-15.085,0-22.729-7.749-22.729-22.524v-29.86H331.648z"/>
			<path fill="#F7941E" d="M388.37,402.748V419.9h22.008v13.225H388.37v34.304h-15.188v-77.906h38.643v13.226H388.37z"/>
			<path fill="#F7941E" d="M470.407,442.114c0,15.705-10.746,26.968-26.657,26.968s-26.657-11.263-26.657-26.968
				c0-15.808,10.849-27.07,26.657-27.07S470.407,426.307,470.407,442.114z M431.765,442.114c0,6.819,4.546,14.155,11.985,14.155
				s11.986-7.336,11.986-14.155c0-7.025-4.547-14.258-11.986-14.258S431.765,435.089,431.765,442.114z"/>
			<path fill="#F7941E" d="M491.69,421.967h0.206c2.893-4.443,7.233-6.923,12.606-6.923c2.065,0,4.133,0.517,5.992,1.239
				l-1.757,13.433c-1.757-1.24-3.823-1.859-5.993-1.859c-10.021,0-11.055,8.885-11.055,16.737v22.835h-14.466v-50.731h14.466
				V421.967z"/>
			<path fill="#F7941E" d="M529.607,435.295h0.207l15.188-18.598h18.806l-21.388,22.317l23.04,28.414H546.45l-16.636-21.595h-0.207
				v21.595h-14.464v-87.618h14.464V435.295z"/>
		</g>
		<g>
			<path fill="#BCBEC0" d="M148.841,321.363c41.219,0,74.633,33.416,74.633,74.64c0,41.217-33.414,74.634-74.633,74.634
				c-41.224-0.003-74.636-33.414-74.636-74.634C74.206,354.779,107.618,321.363,148.841,321.363z"/>
		</g>
		<g>
			<path fill="#F7941E" d="M148.841,328.702c37.167,0,67.295,30.13,67.295,67.301c0,37.165-30.128,67.296-67.295,67.296
				c-37.17-0.003-67.298-30.13-67.298-67.296C81.543,358.832,111.671,328.702,148.841,328.702z"/>
		</g>
		<path fill="#BCBEC0" d="M216.136,396.003c0-2.471-0.145-4.904-0.4-7.301h-22.691v-17.67c0.005-9.187-7.453-16.644-16.639-16.644
			h-58.255c-4.579,0-8.325,3.745-8.325,8.325c0,4.577,3.746,8.318,8.325,8.318h49.93c4.597,0,8.325,3.729,8.325,8.326
			c0,4.59-3.731,8.319-8.321,8.319h-49.767c-4.581,0-8.322,3.747-8.322,8.325c0,4.576,3.741,8.32,8.322,8.321h49.764
			c4.597,0,8.325,3.729,8.325,8.319c0,4.596-3.728,8.319-8.325,8.319h-49.764c-4.581,0-8.322,3.746-8.319,8.327
			c0,4.577,3.738,8.322,8.319,8.322h58.088c9.186,0,16.639-7.461,16.639-16.644v-17.668h22.691
			C215.991,400.901,216.136,398.469,216.136,396.003z"/>
		<rect x="233.913" y="389.604" fill="#BCBEC0" width="46.793" height="13.104"/>
		<rect x="373.235" y="389.604" fill="#BCBEC0" width="38.088" height="13.104"/>
		<rect x="266.281" y="389.604" fill="#BCBEC0" width="136.636" height="13.104"/>
	</g>
</g>
<g id="Layer_2">
</g>
</svg>
