<?xml version="1.0" encoding="utf-8"?>
<!-- Generator: Adobe Illustrator 15.1.0, SVG Export Plug-In . SVG Version: 6.00 Build 0)  -->
<!DOCTYPE svg PUBLIC "-//W3C//DTD SVG 1.1//EN" "http://www.w3.org/Graphics/SVG/1.1/DTD/svg11.dtd">
<svg version="1.1" id="Layer_1" xmlns="http://www.w3.org/2000/svg" xmlns:xlink="http://www.w3.org/1999/xlink" x="0px" y="0px"
	 width="544px" height="429px" viewBox="50.5 181.5 544 429" enable-background="new 50.5 181.5 544 429" xml:space="preserve">
<g>
	<path fill="#F2634B" d="M137.59,514.632h-19.46v-82.871H98.008v-16.942h59.703v16.942H137.59V514.632z"/>
	<path fill="#F2634B" d="M172.273,456.386h0.265c3.707-5.694,9.267-8.873,16.151-8.873c2.647,0,5.294,0.662,7.678,1.594
		l-2.251,17.208c-2.25-1.59-4.897-2.386-7.678-2.386c-12.841,0-14.165,11.387-14.165,21.446v29.257h-18.532v-65h18.532V456.386z"/>
	<path fill="#F2634B" d="M223.105,449.632v35.215c0,7.413,1.191,16.283,10.59,16.283c9.397,0,10.59-8.87,10.59-16.283v-35.215
		h18.533v38.259c0,18.932-9.797,28.857-29.123,28.857c-19.328,0-29.124-9.927-29.124-28.857v-38.259H223.105z"/>
	<path fill="#F2634B" d="M334.035,431.761v21.979h28.197v16.939h-28.197v43.953h-19.461v-99.813h49.51v16.942H334.035
		L334.035,431.761z"/>
	<path fill="#F2634B" d="M439.145,482.199c0,20.12-13.768,34.549-34.153,34.549s-34.154-14.429-34.154-34.549
		c0-20.255,13.9-34.688,34.154-34.688S439.145,461.944,439.145,482.199z M389.635,482.199c0,8.733,5.824,18.136,15.355,18.136
		s15.354-9.401,15.354-18.136c0-9.001-5.823-18.271-15.354-18.271S389.635,473.198,389.635,482.199z"/>
	<path fill="#F2634B" d="M466.412,456.386h0.266c3.707-5.694,9.269-8.873,16.15-8.873c2.646,0,5.295,0.662,7.678,1.594l-2.25,17.208
		c-2.252-1.59-4.896-2.386-7.678-2.386c-12.842,0-14.166,11.387-14.166,21.446v29.257h-18.533v-65h18.533V456.386z"/>
	<path fill="#F2634B" d="M514.994,473.462h0.266l19.459-23.83h24.094l-27.403,28.595l29.521,36.405h-24.354l-21.314-27.668h-0.266
		v27.668h-18.533V402.373h18.533L514.994,473.462L514.994,473.462z"/>
</g>
<path fill="#E6E7E8" d="M288.189,578.999c5.105,0,9.285-4.182,9.285-9.289V408.911c-3.053-0.324-6.148-0.507-9.285-0.507
	c-3.143,0-6.238,0.183-9.285,0.507V569.71C278.904,574.817,283.074,578.999,288.189,578.999z"/>
<path fill="#E6E7E8" d="M288.186,208.001c-52.312,0-94.875,42.564-94.879,94.884c0,52.317,42.562,94.88,94.879,94.88
	c52.32,0,94.887-42.562,94.887-94.88C383.072,250.565,340.506,208.001,288.186,208.001z"/>
<g>
	<g>
		<path fill="#F2634B" d="M378.072,302.885c0,49.639-40.242,89.88-89.887,89.88c-49.638,0-89.879-40.241-89.879-89.88
			c0.004-49.646,40.238-89.884,89.879-89.884C337.83,213.001,378.072,253.237,378.072,302.885z"/>
	</g>
</g>
<path fill="#E6E7E8" d="M288.186,393.765c3.301,0,6.549-0.196,9.75-0.534v-31.309h23.599c12.271,0.008,22.232-9.955,22.232-22.224
	v-77.803c0-6.116-5.004-11.118-11.12-11.118c-6.115,0-11.112,5.002-11.112,11.118v66.686c0,6.139-4.979,11.117-11.118,11.117
	c-6.131,0-11.111-4.981-11.111-11.111v-66.47c0-6.119-5.004-11.116-11.119-11.116c-6.111,0-11.112,4.997-11.112,11.116v66.464
	c0,6.139-4.981,11.117-11.112,11.117c-6.139,0-11.113-4.979-11.113-11.117v-66.464c0-6.119-5.001-11.116-11.121-11.111
	c-6.112,0-11.113,4.992-11.113,11.111v77.581c0,12.269,9.963,22.224,22.227,22.224h23.598v31.309
	C281.644,393.568,284.892,393.765,288.186,393.765z"/>
</svg>
