<?xml version="1.0" encoding="utf-8"?>
<!-- Generator: Adobe Illustrator 15.1.0, SVG Export Plug-In . SVG Version: 6.00 Build 0)  -->
<!DOCTYPE svg PUBLIC "-//W3C//DTD SVG 1.1//EN" "http://www.w3.org/Graphics/SVG/1.1/DTD/svg11.dtd">
<svg version="1.1" id="Layer_1" xmlns="http://www.w3.org/2000/svg" xmlns:xlink="http://www.w3.org/1999/xlink" x="0px" y="0px"
	 width="655.5px" height="229px" viewBox="0 93 655.5 229" enable-background="new 0 93 655.5 229" xml:space="preserve">
<g>
	<path fill="#F2634B" d="M256.43,269.571h-19.46V186.7h-20.122v-16.941h59.703V186.7H256.43V269.571z"/>
	<path fill="#F2634B" d="M291.112,211.325h0.266c3.707-5.693,9.268-8.873,16.15-8.873c2.647,0,5.295,0.662,7.679,1.595
		l-2.251,17.208c-2.25-1.591-4.897-2.387-7.678-2.387c-12.842,0-14.166,11.388-14.166,21.446v29.257h-18.531v-65h18.531V211.325z"/>
	<path fill="#F2634B" d="M341.944,204.571v35.215c0,7.413,1.191,16.283,10.59,16.283c9.397,0,10.591-8.87,10.591-16.283v-35.215
		h18.532v38.259c0,18.933-9.797,28.857-29.123,28.857c-19.327,0-29.123-9.927-29.123-28.857v-38.259H341.944z"/>
	<g>
		<path fill="#F2634B" d="M416.114,186.7v21.979h28.197v16.938h-28.197v43.953h-19.461v-99.812h49.51V186.7H416.114L416.114,186.7z"
			/>
		<path fill="#F2634B" d="M521.224,237.139c0,20.12-13.768,34.549-34.152,34.549s-34.154-14.429-34.154-34.549
			c0-20.255,13.9-34.688,34.154-34.688S521.224,216.884,521.224,237.139z M471.714,237.139c0,8.732,5.824,18.136,15.355,18.136
			s15.354-9.401,15.354-18.136c0-9.001-5.822-18.271-15.354-18.271S471.714,228.138,471.714,237.139z"/>
		<path fill="#F2634B" d="M548.491,211.325h0.266c3.707-5.693,9.27-8.873,16.15-8.873c2.645,0,5.295,0.662,7.678,1.595l-2.25,17.208
			c-2.252-1.591-4.896-2.387-7.678-2.387c-12.842,0-14.166,11.388-14.166,21.446v29.257h-18.533v-65h18.533V211.325z"/>
		<path fill="#F2634B" d="M597.073,228.401h0.266l19.459-23.83h24.094l-27.402,28.595l29.52,36.405h-24.354l-21.314-27.668h-0.266
			v27.668h-18.533V157.312h18.533L597.073,228.401L597.073,228.401z"/>
	</g>
</g>
<g>
	<path fill="#E6E7E8" d="M107.37,119.618c-52.312,0-94.875,42.563-94.878,94.884c0,52.317,42.562,94.88,94.878,94.88
		c52.32,0,94.888-42.562,94.888-94.88C202.256,162.182,159.69,119.618,107.37,119.618z"/>
	<g>
		<g>
			<path fill="#F2634B" d="M197.256,214.502c0,49.639-40.242,89.881-89.887,89.881c-49.639,0-89.879-40.242-89.879-89.881
				c0.004-49.646,40.238-89.884,89.879-89.884C157.014,124.618,197.256,164.854,197.256,214.502z"/>
		</g>
	</g>
	<path fill="#E6E7E8" d="M107.37,305.383c3.301,0,6.549-0.197,9.75-0.535v-31.309h23.6c12.271,0.008,22.231-9.955,22.231-22.224
		v-77.804c0-6.115-5.004-11.117-11.119-11.117s-11.112,5.002-11.112,11.117v66.687c0,6.14-4.979,11.117-11.118,11.117
		c-6.131,0-11.11-4.981-11.11-11.111v-66.47c0-6.119-5.005-11.116-11.119-11.116c-6.111,0-11.112,4.997-11.112,11.116v66.464
		c0,6.14-4.981,11.117-11.112,11.117c-6.139,0-11.113-4.979-11.113-11.117v-66.464c0-6.119-5.001-11.116-11.121-11.111
		c-6.112,0-11.113,4.992-11.113,11.111v77.581c0,12.269,9.963,22.224,22.227,22.224h23.599v31.309
		C100.829,305.186,104.077,305.383,107.37,305.383z"/>
</g>
</svg>
