<?xml version="1.0" encoding="utf-8"?>
<!-- Generator: Adobe Illustrator 15.1.0, SVG Export Plug-In . SVG Version: 6.00 Build 0)  -->
<!DOCTYPE svg PUBLIC "-//W3C//DTD SVG 1.1//EN" "http://www.w3.org/Graphics/SVG/1.1/DTD/svg11.dtd">
<svg version="1.1" xmlns="http://www.w3.org/2000/svg" xmlns:xlink="http://www.w3.org/1999/xlink" x="0px" y="0px" width="612px"
	 height="792px" viewBox="0 0 612 792" enable-background="new 0 0 612 792" xml:space="preserve">
<g id="Layer_1">
	<g>
		<g>
			<path fill="#BCBEC0" d="M-5605.227-1021.804c8.986,0,16.345-7.361,16.345-16.354v-145.4c-5.373-0.57-10.821-0.895-16.345-0.895
				c-5.53,0-10.98,0.325-16.345,0.895v145.4C-5621.571-1029.165-5614.231-1021.804-5605.227-1021.804z"/>
			<g>
				<path fill="#F7941E" d="M-5807.828-1001.188h-34.257v-145.88h-35.42v-29.829h105.098v29.829h-35.42V-1001.188z"/>
				<path fill="#F7941E" d="M-5746.772-1103.724h0.465c6.525-10.021,16.312-15.613,28.43-15.613c4.662,0,9.321,1.164,13.516,2.796
					l-3.962,30.297c-3.962-2.8-8.621-4.198-13.516-4.198c-22.604,0-24.934,20.042-24.934,37.752v51.502h-32.626v-114.419h32.626
					V-1103.724z"/>
				<path fill="#BCBEC0" d="M-5657.293-1115.607v61.988c0,13.047,2.097,28.66,18.643,28.66c16.544,0,18.643-15.613,18.643-28.66
					v-61.988h32.624v67.346c0,33.323-17.244,50.803-51.267,50.803c-34.023,0-51.268-17.48-51.268-50.803v-67.346H-5657.293z"/>
				<path fill="#F7941E" d="M-5529.361-1147.067v38.685h49.637v29.828h-49.637v77.367h-34.256v-175.708h87.154v29.829H-5529.361z"/>
				<path fill="#F7941E" d="M-5344.333-1058.282c0,35.421-24.236,60.824-60.123,60.824c-35.888,0-60.122-25.403-60.122-60.824
					c0-35.655,24.468-61.054,60.122-61.054S-5344.333-1093.937-5344.333-1058.282z M-5431.487-1058.282
					c0,15.379,10.253,31.925,27.031,31.925s27.031-16.546,27.031-31.925c0-15.847-10.253-32.16-27.031-32.16
					S-5431.487-1074.129-5431.487-1058.282z"/>
				<path fill="#F7941E" d="M-5296.331-1103.724h0.466c6.524-10.021,16.312-15.613,28.43-15.613c4.661,0,9.321,1.164,13.517,2.796
					l-3.962,30.297c-3.962-2.8-8.622-4.198-13.517-4.198c-22.604,0-24.934,20.042-24.934,37.752v51.502h-32.625v-114.419h32.625
					V-1103.724z"/>
				<path fill="#F7941E" d="M-5210.811-1073.661h0.466l34.256-41.946h42.412l-48.237,50.334l51.966,64.085h-42.878l-37.519-48.706
					h-0.466v48.706h-32.625V-1198.8h32.625V-1073.661z"/>
			</g>
			<g>
				<path fill="#F7941E" d="M-5447.003-1368.238c0,87.382-70.841,158.221-158.23,158.221c-87.38,0-158.218-70.839-158.218-158.221
					c0.007-87.391,70.835-158.225,158.218-158.225C-5517.844-1526.463-5447.003-1455.629-5447.003-1368.238z"/>
			</g>
			<path fill="#BCBEC0" d="M-5605.232-1210.018c5.81,0,11.528-0.344,17.162-0.943v-53.348h41.544
				c21.599,0.011,39.134-17.526,39.134-39.123v-136.962c0-10.766-8.807-19.573-19.573-19.573c-10.764,0-19.561,8.807-19.561,19.573
				V-1323c0,10.806-8.769,19.569-19.576,19.569c-10.79,0-19.557-8.773-19.557-19.563v-117.006c0-10.77-8.809-19.567-19.573-19.567
				c-10.76,0-19.563,8.797-19.563,19.567v117c0,10.806-8.769,19.569-19.56,19.569c-10.807,0-19.563-8.763-19.563-19.569v-117
				c0-10.77-8.805-19.567-19.576-19.558c-10.761,0-19.565,8.788-19.565,19.558v136.57c0,21.597,17.538,39.123,39.129,39.123h41.538
				v53.348C-5616.751-1210.361-5611.031-1210.018-5605.232-1210.018z"/>
		</g>
		<g>
			<g>
				<path fill="#F7941E" d="M-5815.555-308.363h-33.226v-141.49h-34.355v-28.931h101.937v28.931h-34.355V-308.363z"/>
				<path fill="#F7941E" d="M-5756.336-407.813h0.452c6.329-9.719,15.821-15.144,27.575-15.144c4.521,0,9.04,1.128,13.109,2.711
					l-3.843,29.384c-3.842-2.714-8.362-4.07-13.109-4.07c-21.924,0-24.185,19.438-24.185,36.616v49.952h-31.644v-110.978h31.644
					V-407.813z"/>
				<path fill="#F7941E" d="M-5669.547-419.341v60.124c0,12.657,2.034,27.8,18.082,27.8c16.046,0,18.082-15.143,18.082-27.8v-60.124
					h31.643v65.322c0,32.321-16.726,49.273-49.725,49.273c-33,0-49.726-16.953-49.726-49.273v-65.322H-5669.547z"/>
				<path fill="#F7941E" d="M-5480.147-449.854v37.52h48.143v28.931h-48.143v75.04h-33.226v-170.421h84.533v28.931H-5480.147z"/>
				<path fill="#F7941E" d="M-5300.686-363.739c0,34.355-23.507,58.993-58.314,58.993c-34.807,0-58.314-24.638-58.314-58.993
					c0-34.582,23.732-59.218,58.314-59.218C-5324.417-422.957-5300.686-398.321-5300.686-363.739z M-5385.218-363.739
					c0,14.916,9.945,30.965,26.219,30.965c16.274,0,26.218-16.049,26.218-30.965c0-15.371-9.944-31.192-26.218-31.192
					C-5375.273-394.931-5385.218-379.109-5385.218-363.739z"/>
				<path fill="#F7941E" d="M-5254.126-407.813h0.452c6.328-9.719,15.821-15.144,27.575-15.144c4.52,0,9.04,1.128,13.109,2.711
					l-3.842,29.384c-3.843-2.714-8.363-4.07-13.11-4.07c-21.923,0-24.184,19.438-24.184,36.616v49.952h-31.644v-110.978h31.644
					V-407.813z"/>
				<path fill="#F7941E" d="M-5171.179-378.657h0.452l33.224-40.684h41.137l-46.786,48.82l50.403,62.158h-41.587l-36.39-47.239
					h-0.452v47.239h-31.644v-191.668h31.644V-378.657z"/>
			</g>
			<path fill="#BCBEC0" d="M-5565.253-198.462c8.716,0,15.854-7.14,15.854-15.862v-274.542c-5.211-0.553-10.496-0.868-15.854-0.868
				c-5.364,0-10.65,0.315-15.854,0.868v274.542C-5581.106-205.602-5573.986-198.462-5565.253-198.462z"/>
			<g>
				<g>
					<path fill="#F7941E" d="M-5411.789-669.897c0,84.752-68.71,153.46-153.471,153.46c-84.751,0-153.458-68.708-153.458-153.46
						c0.007-84.764,68.703-153.464,153.458-153.464C-5480.499-823.362-5411.789-754.662-5411.789-669.897z"/>
				</g>
			</g>
			<path fill="#BCBEC0" d="M-5565.258-516.437c5.634,0,11.181-0.333,16.645-0.915v-51.743h40.294
				c20.948,0.012,37.957-16.999,37.957-37.946v-132.842c0-10.442-8.542-18.982-18.985-18.982c-10.44,0-18.972,8.541-18.972,18.982
				v113.861c0,10.481-8.505,18.98-18.987,18.98c-10.466,0-18.968-8.508-18.968-18.975v-113.485c0-10.447-8.544-18.979-18.984-18.979
				c-10.437,0-18.975,8.532-18.975,18.979v113.479c0,10.481-8.505,18.98-18.972,18.98c-10.481,0-18.975-8.499-18.975-18.98v-113.479
				c0-10.447-8.54-18.979-18.988-18.971c-10.436,0-18.976,8.524-18.976,18.971v132.46c0,20.948,17.011,37.946,37.951,37.946h40.289
				v51.743C-5576.43-516.77-5570.883-516.437-5565.258-516.437z"/>
		</g>
	</g>
	<g>
		<path fill="#F2634B" d="M137.59,514.632h-19.46v-82.871H98.008v-16.943h59.703v16.943H137.59V514.632z"/>
		<path fill="#F2634B" d="M172.273,456.386h0.265c3.707-5.695,9.267-8.873,16.151-8.873c2.647,0,5.294,0.662,7.678,1.593
			l-2.251,17.208c-2.25-1.589-4.897-2.385-7.678-2.385c-12.841,0-14.165,11.386-14.165,21.446v29.257h-18.532v-65h18.532V456.386z"
			/>
		<path fill="#F2634B" d="M223.105,449.632v35.215c0,7.413,1.191,16.283,10.59,16.283c9.397,0,10.59-8.87,10.59-16.283v-35.215
			h18.533v38.259c0,18.931-9.797,28.857-29.123,28.857c-19.328,0-29.124-9.927-29.124-28.857v-38.259H223.105z"/>
		<path fill="#F2634B" d="M334.035,431.761v21.978h28.197v16.94h-28.197v43.953h-19.461v-99.814h49.51v16.943H334.035z"/>
		<path fill="#F2634B" d="M439.145,482.199c0,20.12-13.768,34.549-34.154,34.549s-34.154-14.429-34.154-34.549
			c0-20.255,13.9-34.687,34.154-34.687S439.145,461.944,439.145,482.199z M389.635,482.199c0,8.734,5.824,18.136,15.355,18.136
			s15.355-9.401,15.355-18.136c0-9.001-5.824-18.271-15.355-18.271S389.635,473.198,389.635,482.199z"/>
		<path fill="#F2634B" d="M466.412,456.386h0.266c3.707-5.695,9.268-8.873,16.15-8.873c2.646,0,5.295,0.662,7.678,1.593
			l-2.25,17.208c-2.252-1.589-4.896-2.385-7.678-2.385c-12.842,0-14.166,11.386-14.166,21.446v29.257h-18.533v-65h18.533V456.386z"
			/>
		<path fill="#F2634B" d="M514.994,473.462h0.266l19.459-23.83h24.094l-27.404,28.595l29.521,36.405h-24.355l-21.314-27.668h-0.266
			v27.668h-18.533V402.373h18.533V473.462z"/>
	</g>
	<path fill="#E6E7E8" d="M288.189,578.999c5.105,0,9.285-4.182,9.285-9.289V408.911c-3.053-0.324-6.148-0.507-9.285-0.507
		c-3.143,0-6.238,0.183-9.285,0.507V569.71C278.904,574.817,283.074,578.999,288.189,578.999z"/>
	<path fill="#E6E7E8" d="M288.186,208.001c-52.312,0-94.875,42.564-94.879,94.884c0,52.317,42.562,94.88,94.879,94.88
		c52.32,0,94.887-42.563,94.887-94.88C383.072,250.565,340.506,208.001,288.186,208.001z"/>
	<g>
		<g>
			<path fill="#F2634B" d="M378.072,302.885c0,49.639-40.242,89.88-89.887,89.88c-49.638,0-89.879-40.241-89.879-89.88
				c0.004-49.647,40.238-89.884,89.879-89.884C337.83,213.001,378.072,253.237,378.072,302.885z"/>
		</g>
	</g>
	<path fill="#E6E7E8" d="M288.186,393.765c3.301,0,6.549-0.196,9.75-0.534v-31.309h23.599c12.271,0.008,22.233-9.955,22.233-22.224
		v-77.803c0-6.116-5.004-11.118-11.121-11.118c-6.115,0-11.112,5.002-11.112,11.118v66.686c0,6.139-4.979,11.117-11.118,11.117
		c-6.131,0-11.111-4.981-11.111-11.111v-66.47c0-6.119-5.004-11.116-11.119-11.116c-6.111,0-11.112,4.997-11.112,11.116v66.464
		c0,6.139-4.981,11.117-11.112,11.117c-6.139,0-11.113-4.979-11.113-11.117v-66.464c0-6.119-5.001-11.116-11.121-11.111
		c-6.112,0-11.113,4.992-11.113,11.111v77.581c0,12.269,9.963,22.224,22.227,22.224h23.598v31.309
		C281.644,393.568,284.892,393.765,288.186,393.765z"/>
	<g>
		<g>
			<path fill="#BCBEC0" d="M-5605.227-1021.804c8.986,0,16.345-7.361,16.345-16.354v-145.4c-5.373-0.57-10.821-0.895-16.345-0.895
				c-5.53,0-10.98,0.325-16.345,0.895v145.4C-5621.571-1029.165-5614.231-1021.804-5605.227-1021.804z"/>
			<g>
				<path fill="#F7941E" d="M-5807.828-1001.188h-34.257v-145.88h-35.42v-29.829h105.098v29.829h-35.42V-1001.188z"/>
				<path fill="#F7941E" d="M-5746.772-1103.724h0.465c6.525-10.021,16.312-15.613,28.43-15.613c4.662,0,9.321,1.164,13.516,2.796
					l-3.962,30.297c-3.962-2.8-8.621-4.198-13.516-4.198c-22.604,0-24.934,20.042-24.934,37.752v51.502h-32.626v-114.419h32.626
					V-1103.724z"/>
				<path fill="#BCBEC0" d="M-5657.293-1115.607v61.988c0,13.047,2.097,28.66,18.643,28.66c16.544,0,18.643-15.613,18.643-28.66
					v-61.988h32.624v67.346c0,33.323-17.244,50.803-51.267,50.803c-34.023,0-51.268-17.48-51.268-50.803v-67.346H-5657.293z"/>
				<path fill="#F7941E" d="M-5529.361-1147.067v38.685h49.637v29.828h-49.637v77.367h-34.256v-175.708h87.154v29.829H-5529.361z"/>
				<path fill="#F7941E" d="M-5344.333-1058.282c0,35.421-24.236,60.824-60.123,60.824c-35.888,0-60.122-25.403-60.122-60.824
					c0-35.655,24.468-61.054,60.122-61.054S-5344.333-1093.937-5344.333-1058.282z M-5431.487-1058.282
					c0,15.379,10.253,31.925,27.031,31.925s27.031-16.546,27.031-31.925c0-15.847-10.253-32.16-27.031-32.16
					S-5431.487-1074.129-5431.487-1058.282z"/>
				<path fill="#F7941E" d="M-5296.331-1103.724h0.466c6.524-10.021,16.312-15.613,28.43-15.613c4.661,0,9.321,1.164,13.517,2.796
					l-3.962,30.297c-3.962-2.8-8.622-4.198-13.517-4.198c-22.604,0-24.934,20.042-24.934,37.752v51.502h-32.625v-114.419h32.625
					V-1103.724z"/>
				<path fill="#F7941E" d="M-5210.811-1073.661h0.466l34.256-41.946h42.412l-48.237,50.334l51.966,64.085h-42.878l-37.519-48.706
					h-0.466v48.706h-32.625V-1198.8h32.625V-1073.661z"/>
			</g>
			<g>
				<path fill="#F7941E" d="M-5447.003-1368.238c0,87.382-70.841,158.221-158.23,158.221c-87.38,0-158.218-70.839-158.218-158.221
					c0.007-87.391,70.835-158.225,158.218-158.225C-5517.844-1526.463-5447.003-1455.629-5447.003-1368.238z"/>
			</g>
			<path fill="#BCBEC0" d="M-5605.232-1210.018c5.81,0,11.528-0.344,17.162-0.943v-53.348h41.544
				c21.599,0.011,39.134-17.526,39.134-39.123v-136.962c0-10.766-8.807-19.573-19.573-19.573c-10.764,0-19.561,8.807-19.561,19.573
				V-1323c0,10.806-8.769,19.569-19.576,19.569c-10.79,0-19.557-8.773-19.557-19.563v-117.006c0-10.77-8.809-19.567-19.573-19.567
				c-10.76,0-19.563,8.797-19.563,19.567v117c0,10.806-8.769,19.569-19.56,19.569c-10.807,0-19.563-8.763-19.563-19.569v-117
				c0-10.77-8.805-19.567-19.576-19.558c-10.761,0-19.565,8.788-19.565,19.558v136.57c0,21.597,17.538,39.123,39.129,39.123h41.538
				v53.348C-5616.751-1210.361-5611.031-1210.018-5605.232-1210.018z"/>
		</g>
		<g>
			<g>
				<path fill="#F7941E" d="M-5815.555-308.363h-33.226v-141.49h-34.355v-28.931h101.937v28.931h-34.355V-308.363z"/>
				<path fill="#F7941E" d="M-5756.336-407.813h0.452c6.329-9.719,15.821-15.144,27.575-15.144c4.521,0,9.04,1.128,13.109,2.711
					l-3.843,29.384c-3.842-2.714-8.362-4.07-13.109-4.07c-21.924,0-24.185,19.438-24.185,36.616v49.952h-31.644v-110.978h31.644
					V-407.813z"/>
				<path fill="#F7941E" d="M-5669.547-419.341v60.124c0,12.657,2.034,27.8,18.082,27.8c16.046,0,18.082-15.143,18.082-27.8v-60.124
					h31.643v65.322c0,32.321-16.726,49.273-49.725,49.273c-33,0-49.726-16.953-49.726-49.273v-65.322H-5669.547z"/>
				<path fill="#F7941E" d="M-5480.147-449.854v37.52h48.143v28.931h-48.143v75.04h-33.226v-170.421h84.533v28.931H-5480.147z"/>
				<path fill="#F7941E" d="M-5300.686-363.739c0,34.355-23.507,58.993-58.314,58.993c-34.807,0-58.314-24.638-58.314-58.993
					c0-34.582,23.732-59.218,58.314-59.218C-5324.417-422.957-5300.686-398.321-5300.686-363.739z M-5385.218-363.739
					c0,14.916,9.945,30.965,26.219,30.965c16.274,0,26.218-16.049,26.218-30.965c0-15.371-9.944-31.192-26.218-31.192
					C-5375.273-394.931-5385.218-379.109-5385.218-363.739z"/>
				<path fill="#F7941E" d="M-5254.126-407.813h0.452c6.328-9.719,15.821-15.144,27.575-15.144c4.52,0,9.04,1.128,13.109,2.711
					l-3.842,29.384c-3.843-2.714-8.363-4.07-13.11-4.07c-21.923,0-24.184,19.438-24.184,36.616v49.952h-31.644v-110.978h31.644
					V-407.813z"/>
				<path fill="#F7941E" d="M-5171.179-378.657h0.452l33.224-40.684h41.137l-46.786,48.82l50.403,62.158h-41.587l-36.39-47.239
					h-0.452v47.239h-31.644v-191.668h31.644V-378.657z"/>
			</g>
			<path fill="#BCBEC0" d="M-5565.253-198.462c8.716,0,15.854-7.14,15.854-15.862v-274.542c-5.211-0.553-10.496-0.868-15.854-0.868
				c-5.364,0-10.65,0.315-15.854,0.868v274.542C-5581.106-205.602-5573.986-198.462-5565.253-198.462z"/>
			<g>
				<g>
					<path fill="#F7941E" d="M-5411.789-669.897c0,84.752-68.71,153.46-153.471,153.46c-84.751,0-153.458-68.708-153.458-153.46
						c0.007-84.764,68.703-153.464,153.458-153.464C-5480.499-823.362-5411.789-754.662-5411.789-669.897z"/>
				</g>
			</g>
			<path fill="#BCBEC0" d="M-5565.258-516.437c5.634,0,11.181-0.333,16.645-0.915v-51.743h40.294
				c20.948,0.012,37.957-16.999,37.957-37.946v-132.842c0-10.442-8.542-18.982-18.985-18.982c-10.44,0-18.972,8.541-18.972,18.982
				v113.861c0,10.481-8.505,18.98-18.987,18.98c-10.466,0-18.968-8.508-18.968-18.975v-113.485c0-10.447-8.544-18.979-18.984-18.979
				c-10.437,0-18.975,8.532-18.975,18.979v113.479c0,10.481-8.505,18.98-18.972,18.98c-10.481,0-18.975-8.499-18.975-18.98v-113.479
				c0-10.447-8.54-18.979-18.988-18.971c-10.436,0-18.976,8.524-18.976,18.971v132.46c0,20.948,17.011,37.946,37.951,37.946h40.289
				v51.743C-5576.43-516.77-5570.883-516.437-5565.258-516.437z"/>
		</g>
	</g>
</g>
<g id="Layer_2">
</g>
</svg>
